<?xml version="1.0" encoding="UTF-8"?>
<svg version="1.1" xmlns="http://www.w3.org/2000/svg" viewBox="110 0 280 220">
<path d="M0 0 C0.80050781 0.350625 1.60101563 0.70125 2.42578125 1.0625 C10.67065303 5.16357612 17.42945623 11.75956783 23 19 C23.51304687 18.84144531 24.02609375 18.68289062 24.5546875 18.51953125 C26.2503168 18.00284959 27.9486285 17.49494791 29.6484375 16.9921875 C31.41781437 16.46838596 33.18664802 15.94251951 34.95019531 15.39941406 C50.00814365 10.77432194 65.18468989 8.09850773 81 9 C81.63276855 9.03577148 82.26553711 9.07154297 82.91748047 9.10839844 C95.02586552 9.88774951 106.18443275 12.71237227 117.74365234 16.3046875 C120.8160913 17.25148539 123.90532275 18.1289677 127 19 C127.4125 18.50371094 127.825 18.00742187 128.25 17.49609375 C138.1172601 5.88884805 149.82886015 -2.88268276 165.58154297 -4.21899414 C184.23481703 -5.00538019 199.82376521 -2.62170114 214.6875 9.625 C225.20024546 19.534864 231.63352872 32.90098757 232.23828125 47.37109375 C232.65031584 66.14093965 228.6878315 81.77208346 215.41015625 95.78125 C209.16748548 101.52814951 197.71082149 109 189 109 C189.33 109.66 189.66 110.32 190 111 C192.12265705 136.32379227 183.03513988 163.48591456 167 183 C166.67 183.33 166.34 183.66 166 184 C165.76518307 186.18292774 165.58636677 188.37203174 165.4375 190.5625 C165.35371094 191.76003906 165.26992188 192.95757812 165.18359375 194.19140625 C165.12300781 195.11824219 165.06242187 196.04507813 165 197 C166.175625 197.33 167.35125 197.66 168.5625 198 C175.80146068 200.3781842 182.36170969 204.31789168 189 208 C189 208.66 189 209.32 189 210 C189.52078125 210.22429687 190.0415625 210.44859375 190.578125 210.6796875 C215.63002482 224.33701353 229.88266622 250.64575441 238 277 C244.76286203 302.94188027 247.66340396 333.31309827 234.1875 357.51953125 C231.45461859 362.07392691 228.11992378 365.66189544 224 369 C222.515 370.2375 222.515 370.2375 221 371.5 C220.34 371.995 219.68 372.49 219 373 C219.969375 373.886875 220.93875 374.77375 221.9375 375.6875 C235.7676427 389.65790784 241.29869846 405.60152836 241.31469727 425.04541016 C241.00871257 445.10279735 232.36150366 463.20736349 218.625 477.75 C202.53621684 492.86697746 182.11601413 498.9119707 160.4296875 498.34765625 C143.73904909 497.53610377 130.70958429 490.62683105 119 479 C118.15308594 478.22269531 118.15308594 478.22269531 117.2890625 477.4296875 C107.63694848 467.67543471 104.30835919 452.20292778 103.625 439.0625 C103.05002814 429.95217008 100.91885734 421.3038478 94 415 C84.7828643 409.79542429 75.00295129 408.40453539 64.75 411.25 C57.89229183 413.56098316 53.52293583 416.56153107 50 423 C47.44805277 429.20634808 46.53905297 435.0327053 46.125 441.6875 C44.63014554 459.78328302 37.77561229 473.71560033 23.875 485.5 C18.5652815 489.77905025 13.40809422 492.70173836 7 495 C6.13503906 495.31839844 5.27007812 495.63679688 4.37890625 495.96484375 C-14.54190104 501.78869507 -35.17099994 498.09852177 -52.40771484 489.20068359 C-70.72747291 479.23666696 -82.91817127 462.81719473 -89 443 C-90.71526232 436.18461247 -91.3579501 429.64184606 -91.3125 422.625 C-91.30686035 421.705979 -91.3012207 420.78695801 -91.29541016 419.84008789 C-90.98630867 402.50439117 -84.22585417 389.91993762 -73 377 C-71.65937576 375.33919231 -70.32381517 373.67423683 -69 372 C-69.49628906 371.6596875 -69.99257812 371.319375 -70.50390625 370.96875 C-82.46554697 362.43444846 -89.10470376 351.67206084 -91.875 337.125 C-97.4340597 303.05484968 -89.05397604 264.64011402 -69 236.375 C-62.45323825 227.50336161 -54.7791178 220.58007665 -46 214 C-44.5459375 212.7934375 -44.5459375 212.7934375 -43.0625 211.5625 C-41 210 -41 210 -39 210 C-39 209.34 -39 208.68 -39 208 C-35.94311771 206.34357236 -32.87860605 204.70178208 -29.8125 203.0625 C-28.94818359 202.59392578 -28.08386719 202.12535156 -27.19335938 201.64257812 C-26.35224609 201.19462891 -25.51113281 200.74667969 -24.64453125 200.28515625 C-23.87471924 199.87144775 -23.10490723 199.45773926 -22.31176758 199.03149414 C-19.87819542 197.94565167 -17.62365602 197.4240867 -15 197 C-14.91192528 188.85937976 -15.44811467 183.74038969 -20.8984375 177.6171875 C-35.37644085 159.58696029 -41.36166537 133.70777244 -40 111 C-39.67 110.34 -39.34 109.68 -39 109 C-39.59425781 108.85304688 -40.18851563 108.70609375 -40.80078125 108.5546875 C-55.23074659 104.64984462 -66.69055095 96.916279 -74.4296875 84.01171875 C-82.48674845 68.55899738 -85.10163243 50.51325135 -79.96875 33.59375 C-74.19486459 18.13463746 -64.27486161 7.23315794 -49.3125 0.125 C-34.49396984 -6.46613472 -14.8177789 -6.65377369 0 0 Z " fill="#C0684E" transform="translate(181,4)"/>
<path d="M0 0 C0.80050781 0.350625 1.60101563 0.70125 2.42578125 1.0625 C10.67065303 5.16357612 17.42945623 11.75956783 23 19 C23.51304687 18.84144531 24.02609375 18.68289062 24.5546875 18.51953125 C26.2503168 18.00284959 27.9486285 17.49494791 29.6484375 16.9921875 C31.41781437 16.46838596 33.18664802 15.94251951 34.95019531 15.39941406 C50.00814365 10.77432194 65.18468989 8.09850773 81 9 C81.63276855 9.03577148 82.26553711 9.07154297 82.91748047 9.10839844 C95.02586552 9.88774951 106.18443275 12.71237227 117.74365234 16.3046875 C120.8160913 17.25148539 123.90532275 18.1289677 127 19 C127.4125 18.50371094 127.825 18.00742187 128.25 17.49609375 C138.1172601 5.88884805 149.82886015 -2.88268276 165.58154297 -4.21899414 C184.23481703 -5.00538019 199.82376521 -2.62170114 214.6875 9.625 C225.20024546 19.534864 231.63352872 32.90098757 232.23828125 47.37109375 C232.65031584 66.14093965 228.6878315 81.77208346 215.41015625 95.78125 C209.16748548 101.52814951 197.71082149 109 189 109 C189.33 109.66 189.66 110.32 190 111 C192.12265705 136.32379227 183.03513988 163.48591456 167 183 C166.67 183.33 166.34 183.66 166 184 C165.76518307 186.18292774 165.58636677 188.37203174 165.4375 190.5625 C165.35371094 191.76003906 165.26992188 192.95757812 165.18359375 194.19140625 C165.12300781 195.11824219 165.06242188 196.04507813 165 197 C164.01 197 163.02 197 162 197 C161.48233834 200.25387329 161.02422701 203.41938723 160.88671875 206.71484375 C160.3674536 218.00515163 156.85285967 226.67299183 149.2578125 235.0625 C143.30078607 240.17441195 138.98880887 241.61577823 131.3125 241.3125 C130.56677734 241.30283203 129.82105469 241.29316406 129.05273438 241.28320312 C125.55402723 241.21141877 122.36691419 240.9287878 119 240 C119.30292969 240.70640625 119.60585938 241.4128125 119.91796875 242.140625 C128.78619146 263.86094892 131.42961195 285.70548561 131 309 C130.14019531 309.13535156 129.28039062 309.27070313 128.39453125 309.41015625 C114.95836705 311.85709128 103.68911016 317.10699911 95 328 C93.12126053 330.91315131 91.47521986 333.86423116 90 337 C89.34 337 88.68 337 88 337 C87.90295776 336.06377808 87.90295776 336.06377808 87.80395508 335.10864258 C86.27664972 320.53434761 84.50056019 306.01568823 82.5 291.5 C77.12337424 252.39512719 77.12337424 252.39512719 76.2109375 233.625 C76.09657976 230.89103399 76.09657976 230.89103399 75 228 C73.92714636 231.21856093 73.68163028 233.94149656 73.421875 237.32421875 C73.31500611 238.65588103 73.20764055 239.98750352 73.09985352 241.3190918 C73.04338654 242.02834808 72.98691956 242.73760437 72.92874146 243.46835327 C71.33509589 263.25410102 68.88390086 282.90659319 66.31433105 302.58538818 C65.8006302 306.53150846 65.29498821 310.47865792 64.7890625 314.42578125 C63.86625971 321.61808876 62.93614177 328.80941483 62 336 C58.41629769 334.80543256 58.17601822 334.02536031 56.3125 330.875 C52.95654579 325.60976859 48.66270768 320.83135384 43 318 C43 317.34 43 316.68 43 316 C41.8553125 315.62875 41.8553125 315.62875 40.6875 315.25 C36.72252547 313.90594084 32.80174408 312.46178527 28.87890625 311 C25.61332973 309.86568848 22.33071789 308.92451153 19 308 C18.52665674 283.80690012 22.20733276 261.59902559 31 239 C30.46761719 239.31324219 29.93523437 239.62648437 29.38671875 239.94921875 C22.42897218 243.01244924 14.03090714 242.64996022 7 240.08203125 C-1.19142948 235.65033991 -6.58227843 226.85678466 -9.515625 218.1640625 C-10.35118418 214.43099972 -10.57970477 210.66684571 -10.81640625 206.85546875 C-11.03046794 203.5261263 -11.47618943 200.29252355 -12 197 C-12.99 197 -13.98 197 -15 197 C-14.99097656 196.16597656 -14.98195313 195.33195313 -14.97265625 194.47265625 C-15.16722608 187.08746214 -16.01198282 183.10690819 -20.8984375 177.6171875 C-35.37644085 159.58696029 -41.36166537 133.70777244 -40 111 C-39.67 110.34 -39.34 109.68 -39 109 C-39.59425781 108.85304688 -40.18851563 108.70609375 -40.80078125 108.5546875 C-55.23074659 104.64984462 -66.69055095 96.916279 -74.4296875 84.01171875 C-82.48674845 68.55899738 -85.10163243 50.51325135 -79.96875 33.59375 C-74.19486459 18.13463746 -64.27486161 7.23315794 -49.3125 0.125 C-34.49396984 -6.46613472 -14.8177789 -6.65377369 0 0 Z " fill="#C0684E" transform="translate(181,4)"/>
<path d="M0 0 C6.45856775 5.61573413 11.42756185 10.93054598 12.15234375 19.69921875 C12.4629795 33.26909629 7.81421603 41.37678617 -1.234375 51.1328125 C-14.01777096 63.68262481 -31.50501191 68.77077223 -49.0234375 68.94140625 C-51.37780994 68.91370775 -53.73208305 68.87302818 -56.0859375 68.81640625 C-56.95347656 68.79964844 -57.82101563 68.78289062 -58.71484375 68.765625 C-73.46674178 67.91502132 -87.86500529 60.28662949 -98.0859375 49.81640625 C-103.0859375 43.80667389 -103.0859375 43.80667389 -103.0859375 40.81640625 C-103.7459375 40.81640625 -104.4059375 40.81640625 -105.0859375 40.81640625 C-105.4159375 38.83640625 -105.7459375 36.85640625 -106.0859375 34.81640625 C-106.7459375 34.81640625 -107.4059375 34.81640625 -108.0859375 34.81640625 C-110.24323183 28.34452325 -110.45749857 18.70393062 -107.5859375 12.37890625 C-100.43976541 0.78847166 -88.40067429 -5.26028354 -75.5234375 -8.37109375 C-53.1057294 -13.55183913 -19.66216472 -13.9128482 0 0 Z " fill="#D69C80" transform="translate(304.0859375,146.18359375)"/>
<path d="M0 0 C0 3.96 0 7.92 0 12 C-0.99 12 -1.98 12 -3 12 C-3.51766166 15.25387329 -3.97577299 18.41938723 -4.11328125 21.71484375 C-4.6325464 33.00515163 -8.14714033 41.67299183 -15.7421875 50.0625 C-21.69921393 55.17441195 -26.01119113 56.61577823 -33.6875 56.3125 C-34.80608398 56.29799805 -34.80608398 56.29799805 -35.94726562 56.28320312 C-39.44597277 56.21141877 -42.63308581 55.9287878 -46 55 C-45.69707031 55.70640625 -45.39414062 56.4128125 -45.08203125 57.140625 C-36.21380854 78.86094892 -33.57038805 100.70548561 -34 124 C-34.85980469 124.13535156 -35.71960938 124.27070313 -36.60546875 124.41015625 C-50.04163295 126.85709128 -61.31088984 132.10699911 -70 143 C-71.87873947 145.91315131 -73.52478014 148.86423116 -75 152 C-75.66 152 -76.32 152 -77 152 C-77.06469482 151.37585205 -77.12938965 150.7517041 -77.19604492 150.10864258 C-78.63993962 136.3302929 -80.28326773 122.59735111 -82.17312622 108.87393188 C-85.4219637 85.27913971 -88.37407611 61.83697983 -89 38 C-87.87207031 37.91363281 -86.74414062 37.82726562 -85.58203125 37.73828125 C-76.52454059 36.96159121 -67.72871992 35.71454472 -58.875 33.625 C-58.02397705 33.42817627 -57.1729541 33.23135254 -56.29614258 33.02856445 C-50.54164989 31.6092545 -45.32773657 29.58303281 -40 27 C-39.37270996 26.70013184 -38.74541992 26.40026367 -38.09912109 26.09130859 C-25.31946292 19.84863081 -14.45631633 12.14292611 -4.8046875 1.6171875 C-3 0 -3 0 0 0 Z " fill="#A0051E" transform="translate(346,189)"/>
<path d="M0 0 C4.59525752 1.14881438 6.25742555 3.10231731 9.3125 6.4375 C15.79004366 13.20228039 22.9892317 18.20713248 31 23 C32.24136719 23.75216797 32.24136719 23.75216797 33.5078125 24.51953125 C50.14443284 33.64938388 70.27342711 37.30286186 89 38 C88.67437854 54.13454329 87.08451408 69.98460355 85.02386475 85.97637939 C83.53984283 97.51447059 82.14587183 109.0638457 80.73370361 120.61090088 C79.9551371 126.97137177 79.17290444 133.33139113 78.390625 139.69140625 C78.12011577 141.89135725 77.84960781 144.0913084 77.57910156 146.29125977 C77.38607314 147.86084051 77.19304159 149.43042087 77 151 C73.41629769 149.80543256 73.17601822 149.02536031 71.3125 145.875 C67.95654579 140.60976859 63.66270768 135.83135384 58 133 C58 132.34 58 131.68 58 131 C56.8553125 130.62875 56.8553125 130.62875 55.6875 130.25 C51.72252547 128.90594084 47.80174408 127.46178527 43.87890625 126 C40.61332973 124.86568848 37.33071789 123.92451153 34 123 C33.52665674 98.80690012 37.20733276 76.59902559 46 54 C45.46761719 54.31324219 44.93523437 54.62648437 44.38671875 54.94921875 C37.42897218 58.01244924 29.03090714 57.64996022 22 55.08203125 C13.80857052 50.65033991 8.41772157 41.85678466 5.484375 33.1640625 C4.64881582 29.43099972 4.42029523 25.66684571 4.18359375 21.85546875 C3.96953206 18.5261263 3.52381057 15.29252355 3 12 C2.01 12 1.02 12 0 12 C0 8.04 0 4.08 0 0 Z " fill="#A0051E" transform="translate(166,189)"/>
<path d="M0 0 C8.3176884 5.70206312 13.73357768 11.46680887 16.08520508 21.55322266 C18.57959093 34.98781702 15.81714602 46.1420417 8.484375 57.578125 C7.51861177 58.97738423 6.51475986 60.35074486 5.484375 61.703125 C4.73414063 62.69183594 3.98390625 63.68054688 3.2109375 64.69921875 C-3.16906419 72.26087871 -14.83412122 77.34717209 -24.515625 78.703125 C-28.87598356 78.9724108 -33.15443028 78.91323464 -37.515625 78.703125 C-38.629375 78.70892578 -38.629375 78.70892578 -39.765625 78.71484375 C-46.80828157 78.44506457 -52.4381304 73.74619572 -57.26171875 68.9765625 C-60.515625 65.23410942 -60.515625 65.23410942 -60.515625 62.703125 C-61.175625 62.703125 -61.835625 62.703125 -62.515625 62.703125 C-65.52269531 55.73585048 -66.90374776 49.36632829 -66.890625 41.828125 C-66.89191406 41.115354 -66.89320313 40.40258301 -66.89453125 39.66821289 C-66.80512258 35.33544833 -66.09444286 31.73226817 -64.515625 27.703125 C-63.855625 27.703125 -63.195625 27.703125 -62.515625 27.703125 C-62.495 26.89875 -62.474375 26.094375 -62.453125 25.265625 C-60.05332089 16.14636938 -50.79386189 7.6075268 -43.265625 2.203125 C-40.515625 0.703125 -40.515625 0.703125 -36.515625 0.703125 C-36.515625 0.043125 -36.515625 -0.616875 -36.515625 -1.296875 C-24.9029115 -6.458081 -11.01573949 -6.51206699 0 0 Z " fill="#D89D81" transform="translate(378.515625,403.296875)"/>
<path d="M0 0 C9.96993252 5.70692689 19.13731948 12.80514841 24.5 23.25 C24.5 24.57 24.5 25.89 24.5 27.25 C25.16 27.25 25.82 27.25 26.5 27.25 C28.35677537 31.98849074 28.88412181 36.33120785 28.875 41.375 C28.87628906 42.11548584 28.87757813 42.85597168 28.87890625 43.61889648 C28.75175551 50.3065918 27.15220943 56.10492547 24.5 62.25 C23.84 62.25 23.18 62.25 22.5 62.25 C22.2525 62.806875 22.005 63.36375 21.75 63.9375 C18.90038128 69.20929464 15.84932162 71.95168251 10.4375 74.5 C9.39464844 75.00015625 8.35179687 75.5003125 7.27734375 76.015625 C-1.4102599 79.87678218 -12.83871412 79.46606885 -21.875 76.6875 C-35.80011515 71.20127132 -45.12291759 62.15717398 -51.52734375 48.63671875 C-55.65371131 38.51137506 -56.39019849 25.92563215 -52.609375 15.45703125 C-49.34314291 8.95906952 -44.47750907 3.36783958 -38.5 -0.75 C-37.18 -0.75 -35.86 -0.75 -34.5 -0.75 C-34.5 -1.41 -34.5 -2.07 -34.5 -2.75 C-23.19527274 -7.1327558 -10.5350139 -5.49778048 0 0 Z " fill="#D89D81" transform="translate(171.5,403.75)"/>
<path d="M0 0 C3.3125 0.9375 3.3125 0.9375 5.3125 2.9375 C6.26186381 8.65834165 4.93817455 13.81544676 3.171875 19.22265625 C-0.977897 32.33216327 -2.83368344 45.91152484 -2.9375 59.625 C-2.94676514 60.39158936 -2.95603027 61.15817871 -2.96557617 61.94799805 C-2.97868855 67.28418647 -2.97868855 67.28418647 -0.6875 71.9375 C0.3025 72.2675 1.2925 72.5975 2.3125 72.9375 C4.06640625 75.3359375 4.06640625 75.3359375 5.875 78.3125 C6.47441406 79.28960937 7.07382813 80.26671875 7.69140625 81.2734375 C8.22636719 82.15257812 8.76132813 83.03171875 9.3125 83.9375 C10.3025 85.4225 10.3025 85.4225 11.3125 86.9375 C15.43600899 98.92622059 13.17761805 110.27312588 9.3125 121.9375 C10.19550781 122.21335937 11.07851562 122.48921875 11.98828125 122.7734375 C31.23068157 129.51166934 46.80470255 144.82480129 57.3125 161.9375 C58.72322233 165.00551791 59.55971045 167.63680735 60.3125 170.9375 C60.9725 170.9375 61.6325 170.9375 62.3125 170.9375 C62.74405765 176.20250337 62.74405765 176.20250337 62.3125 178.9375 C59.84775501 181.19098113 58.03403251 181.77515519 54.8125 182.5 C50.93890746 181.62844168 49.38860469 179.10473926 47.3125 175.9375 C45.55769875 172.96361807 43.84677556 169.96633042 42.1328125 166.96875 C39.53609992 162.6446106 36.58950944 158.76439311 33.3125 154.9375 C32.56806641 154.04998047 32.56806641 154.04998047 31.80859375 153.14453125 C21.51017798 141.86531398 7.24982073 135.87225212 -7.31640625 132.55078125 C-9.6875 131.9375 -9.6875 131.9375 -10.6875 130.9375 C-14.61717927 130.65201972 -18.56122183 130.70547503 -22.5 130.6875 C-23.58732422 130.666875 -24.67464844 130.64625 -25.79492188 130.625 C-32.5752669 130.5927702 -38.51520241 131.36094146 -45.03173828 133.25341797 C-49.10809898 134.30342373 -52.49614335 134.33667682 -56.6875 133.9375 C-58.3984375 132.66015625 -58.3984375 132.66015625 -59.6875 130.9375 C-60.13998431 127.77010986 -60.38691684 125.94195148 -59.6875 122.9375 C-54.47037469 117.26004011 -44.9167476 116.31166559 -37.50592041 115.78140259 C-32.10751897 115.5768497 -26.71256555 115.66137382 -21.3125 115.75 C-19.69011678 115.7650942 -18.06771976 115.77877412 -16.4453125 115.79101562 C-12.52569184 115.82360033 -8.60675487 115.87511186 -4.6875 115.9375 C-1.93711743 108.15380046 -1.15435823 99.29960497 -3.45703125 91.24609375 C-5.19290579 87.8172815 -7.1683952 85.3674588 -10.13842773 82.9074707 C-14.26153702 79.46143047 -17.21118529 76.69078483 -18.64550781 71.41113281 C-19.00715342 67.22637651 -19.03056058 63.19109332 -18.875 59 C-18.86286469 58.25103455 -18.85072937 57.50206909 -18.83822632 56.73040771 C-18.62039231 44.32647124 -16.59979182 32.55324607 -13.5 20.5625 C-13.3069931 19.80784454 -13.11398621 19.05318909 -12.91513062 18.27566528 C-8.08734953 -0.13707372 -8.08734953 -0.13707372 0 0 Z " fill="#944135" transform="translate(171.6875,241.0625)"/>
<path d="M0 0 C0.680625 0.07347656 1.36125 0.14695313 2.0625 0.22265625 C4.7197024 1.20303536 5.46187082 2.58262219 7 4.9375 C7.84375 7.21728516 7.84375 7.21728516 8.5 9.7265625 C8.7460498 10.65815186 8.99209961 11.58974121 9.24560547 12.54956055 C9.49455566 13.54383057 9.74350586 14.53810059 10 15.5625 C10.26055176 16.59866455 10.52110352 17.6348291 10.78955078 18.70239258 C11.54694973 21.77627655 12.27990332 24.85468265 13 27.9375 C13.1865918 28.72527832 13.37318359 29.51305664 13.56542969 30.32470703 C15.84137889 40.31662376 16.3941174 50.33308169 16.625 60.5625 C16.67253418 61.76092529 16.72006836 62.95935059 16.76904297 64.1940918 C16.80305 70.08850646 16.63042483 73.98622286 12.66796875 78.54296875 C11.46386981 79.69420716 10.24147602 80.82667085 9 81.9375 C7.88283897 83.15486846 6.77650314 84.38237903 5.6875 85.625 C5.21699219 86.14449219 4.74648438 86.66398437 4.26171875 87.19921875 C0.9440527 91.76999705 0.67803804 96.25519034 0.75 101.75 C0.75386719 102.45833984 0.75773437 103.16667969 0.76171875 103.89648438 C0.84448702 108.89476845 1.42464076 113.21142227 3 117.9375 C4.57201172 117.69580078 4.57201172 117.69580078 6.17578125 117.44921875 C12.16681974 116.70511307 18.15859367 116.75334382 24.1875 116.75 C25.33025391 116.73775391 26.47300781 116.72550781 27.65039062 116.71289062 C47.77114857 116.67876837 47.77114857 116.67876837 54.75 120.6875 C57 122.9375 57 122.9375 58 125.9375 C58 129.00561896 57.74930361 130.4516475 56 132.9375 C51.30368966 135.28565517 45.26860108 134.09315173 40.33203125 132.94921875 C19.86757159 128.71525782 -4.22374212 131.82457166 -22 142.9375 C-23.04542969 143.58460938 -24.09085937 144.23171875 -25.16796875 144.8984375 C-36.69838706 152.76075062 -43.38730238 163.98047042 -49.4296875 176.29296875 C-51.04445155 179.01235994 -52.25841304 180.39233945 -55 181.9375 C-58.87726431 181.70011647 -60.74076883 181.11032078 -64 178.9375 C-64.672 171.9935 -64.672 171.9935 -62.6875 168.875 C-62.130625 168.235625 -61.57375 167.59625 -61 166.9375 C-60.5875 165.90625 -60.175 164.875 -59.75 163.8125 C-52.60903607 146.54903566 -36.01507304 132.75581098 -20 123.9375 C-16.88990799 122.84917709 -14.28470697 122.33393015 -11 121.9375 C-11.28875 121.40125 -11.5775 120.865 -11.875 120.3125 C-16.71543428 110.09380542 -16.4340974 99.22995842 -13 88.625 C-10.26051591 81.78411687 -6.27442855 74.18217985 -0.28125 69.6328125 C1.88165852 66.77091525 1.43810673 63.44188488 1.375 60 C1.36629883 59.20875732 1.35759766 58.41751465 1.34863281 57.60229492 C0.97693924 42.04752837 -2.08713272 26.67610183 -7 11.9375 C-7.203125 9.78125 -7.203125 9.78125 -7.25 7.4375 C-7.27578125 6.6640625 -7.3015625 5.890625 -7.328125 5.09375 C-7 2.9375 -7 2.9375 -5.734375 1.15234375 C-3.56919761 -0.36425573 -2.59269148 -0.34863844 0 0 Z " fill="#944135" transform="translate(342,241.0625)"/>
<path d="M0 0 C0 0.66 0 1.32 0 2 C0.721875 2.226875 1.44375 2.45375 2.1875 2.6875 C5.53209313 4.24831013 7.51603959 6.3031287 10 9 C8.64259135 12.14702701 7.26308184 13.79762935 4.5625 15.875 C0.55974889 19.24728115 -2.60575502 23.0176759 -5.8125 27.125 C-6.28034912 27.72296387 -6.74819824 28.32092773 -7.23022461 28.93701172 C-11.37597184 34.32940318 -14.39138932 39.69585753 -17 46 C-17.56064563 47.31329318 -18.12308174 48.62582377 -18.6875 49.9375 C-19.120625 50.948125 -19.55375 51.95875 -20 53 C-28.43600165 51.75941152 -33.04742756 47.60742716 -38 41 C-42.90183318 34.34443178 -43.05414825 27.02774437 -42 19 C-40.76903492 15.32656665 -39.12566047 12.22853938 -37 9 C-36.401875 8.071875 -35.80375 7.14375 -35.1875 6.1875 C-25.83873403 -3.16126597 -12.20372793 -4.54092202 0 0 Z " fill="#672214" transform="translate(170,31)"/>
<path d="M0 0 C0 0.66 0 1.32 0 2 C0.556875 2.226875 1.11375 2.45375 1.6875 2.6875 C6.90896056 5.65103167 10.04522294 9.8032057 12.26171875 15.28515625 C14.3927125 23.1213502 14.1323468 30.72917547 10.4375 38 C7.34220684 42.96125003 3.60528911 47.94261839 -2.2109375 49.6484375 C-2.80132812 49.76445313 -3.39171875 49.88046875 -4 50 C-4 50.66 -4 51.32 -4 52 C-5.65 52 -7.3 52 -9 52 C-13.72829212 42.71161587 -13.72829212 42.71161587 -15.3125 38.5625 C-20.29361541 28.04681192 -29.42125786 16.67875599 -39 10 C-37.58164226 6.69777222 -35.89324118 4.72376959 -33.1875 2.375 C-32.18783203 1.48941406 -32.18783203 1.48941406 -31.16796875 0.5859375 C-22.30371216 -5.8985457 -9.57106411 -4.02992173 0 0 Z " fill="#672214" transform="translate(371,32)"/>
<path d="M0 0 C1.0209375 -0.04576172 2.041875 -0.09152344 3.09375 -0.13867188 C9.53725268 -0.23391645 13.3899981 0.6433219 18.44482422 4.70703125 C20.73653449 7.47993026 20.95088066 9.93293439 20.66796875 13.4453125 C18.36804455 22.12384419 13.54844432 30.45021413 6.875 36.4375 C3.73075698 38.00962151 0.29708708 37.9554375 -3.125 37.4375 C-8.45444087 35.2450085 -10.27099522 31.30402704 -12.8125 26.4375 C-13.58646724 24.99958401 -14.36117903 23.56206848 -15.13671875 22.125 C-15.47147217 21.48949219 -15.80622559 20.85398438 -16.15112305 20.19921875 C-17.05648457 18.56144268 -18.08695599 16.99456602 -19.125 15.4375 C-19.6663058 11.91901231 -19.82321425 9.52123133 -17.8515625 6.4609375 C-12.34404276 -0.06748834 -8.30591673 0.14868616 0 0 Z " fill="#2D3134" transform="translate(255.125,138.5625)"/>
<path d="M0 0 C0 0.66 0 1.32 0 2 C0.598125 2.226875 1.19625 2.45375 1.8125 2.6875 C4.80043735 4.48026241 5.64997474 5.75993937 7 9 C7.67759391 13.89010544 7.83552614 18.35109924 5.125 22.625 C4.073125 23.800625 4.073125 23.800625 3 25 C2.34 25 1.68 25 1 25 C1 25.66 1 26.32 1 27 C-3.94742814 28.64914271 -8.93798475 28.8248061 -13.8125 26.875 C-17.29923939 23.88636623 -19.67607752 21.24586254 -20.3515625 16.5625 C-20.56439137 10.06154546 -19.30660829 6.67864189 -15.0625 1.75 C-11.06374753 -1.64288088 -4.7536242 -2.3768121 0 0 Z " fill="#2E3033" transform="translate(305,100)"/>
<path d="M0 0 C5.17068878 0.46166864 7.99252442 2.60402767 11.375 6.4375 C13.06610088 10.75920226 13.1527451 14.73595011 12.5 19.3125 C10.68766463 23.14628636 9.19973473 24.84601018 5.6875 27.1875 C1.21808201 28.76494164 -2.45909936 28.9355787 -7.0078125 27.546875 C-11.39227151 25.37526207 -13.45295426 21.64304892 -15.5 17.3125 C-16.53699503 13.18512242 -16.42166096 9.98653725 -14.3515625 6.2265625 C-11.99479314 3.17149111 -10.27253588 1.559054 -6.5625 0.375 C-4.37188762 0.33029362 -2.18238686 0.19485597 0 0 Z " fill="#2D3033" transform="translate(214.5,99.6875)"/>
<path d="M0 0 C3.54993485 0.45236751 5.41397066 2.00060617 8.0625 4.3125 C15.70492544 10.37158444 23.82686576 12.88872493 33.5859375 12.5859375 C41.25792298 11.26923519 48.40987834 7.32355633 54.26171875 2.25 C57 0 57 0 59.375 0.1875 C59.91125 0.455625 60.4475 0.72375 61 1 C61.495 3.475 61.495 3.475 62 6 C51.89320388 15 51.89320388 15 48 15 C47.67 15.99 47.34 16.98 47 18 C37.39245031 21.69138714 24.96213456 21.68240533 15.4375 17.875 C9.31023568 14.87944855 2.43854222 11.32064998 -2 6 C-1.57894737 1.57894737 -1.57894737 1.57894737 0 0 Z " fill="#39393A" transform="translate(226,181)"/>
<path d="M0 0 C0.66 0.33 1.32 0.66 2 1 C-1.96 4.96 -5.92 8.92 -10 13 C-10 8.83248505 -7.76127698 6.85829482 -5 4 C-3.36927384 2.62294236 -1.7133562 1.27277889 0 0 Z " fill="#B76049" transform="translate(314,387)"/>
<path d="M0 0 C0.66 0.33 1.32 0.66 2 1 C-1.3 4.3 -4.6 7.6 -8 11 C-8 7.0234755 -6.61988497 5.9109833 -4 3 C-1.75 1.1875 -1.75 1.1875 0 0 Z " fill="#79301F" transform="translate(141,32)"/>
</svg>
