<?xml version="1.0" encoding="utf-8"?>
<svg xmlns="http://www.w3.org/2000/svg" height="1587pt" preserveAspectRatio="none" viewBox="223.924 75.201 1434.329 1430.622" width="1920pt" xmlns:bx="https://boxy-svg.com"><defs><bx:export><bx:file format="svg" units="pt"/><bx:file format="svg" href="#object-0" path="winged_sandal_2.svg" units="pt"/></bx:export></defs><ellipse style="fill: rgba(216, 216, 216, 0); stroke: rgb(0, 0, 0); paint-order: fill; stroke-width: 30px; opacity: 0;" cx="940.768" cy="790.52" rx="700" ry="700"/><path d="M 1324.37 303.326 C 1313.91 305.849 1300.11 314.852 1282.34 330.906 C 1262.87 348.508 1235.93 369.839 1200.95 395.413 C 1176.31 413.417 1150.69 430.848 1138.26 438.129 C 1110.48 454.356 1071.54 467.085 981.787 489.161 C 913.692 505.904 884.762 515.365 856.604 529.986 C 838.289 539.448 825.533 548.909 812.17 562.899 C 790.612 585.433 778.237 610.663 772.852 643.002 C 770.484 657.05 769.599 669.263 769.599 688.128 C 769.599 706.705 770.093 712.325 772.739 723.219 C 775.653 735.145 777.3 739.617 792.424 776.601 C 798.807 792.138 803.872 805.21 803.697 805.677 C 803.1 807.162 790.231 826.999 787.585 830.385 C 779.555 840.763 766.963 853.551 753.271 865.188 C 740.124 876.425 724.619 890.589 699.924 913.988 C 683.314 929.754 679.575 933.308 649.328 962.838 C 625.022 986.52 605.388 1005.39 590.376 1019.37 C 564.911 1043.12 561.118 1045.65 547.038 1048.34 C 539.999 1049.71 511.18 1049.66 484.617 1048.22 C 461.134 1047.01 447.275 1047.25 438.476 1049.09 C 421.262 1052.64 410.868 1060.56 403.608 1075.74 C 395.194 1093.35 395.579 1109.35 404.708 1124.03 C 409.932 1132.45 421.592 1143.3 433.801 1151.04 C 465.259 1171.05 541.923 1199.94 592.3 1210.78 L 600.439 1212.49 L 638.988 1212.49 C 671.381 1212.49 678.42 1212.33 683.095 1211.58 C 710.978 1207.05 734.297 1195.18 772.791 1165.77 C 804.253 1141.79 820.746 1130.67 850.994 1113.13 L 869.257 1102.52 L 917.542 1102.12 C 1004.83 1101.5 1007.63 1101.14 1031 1088.99 C 1038.88 1084.87 1046.19 1080.28 1050.53 1076.66 C 1058.61 1069.95 1066.81 1059.29 1070.82 1050.17 C 1077.15 1035.89 1079.85 1023.04 1083.86 988.296 C 1085.07 977.402 1086.39 966.676 1086.78 964.498 L 1087.38 960.486 L 1089.86 960.66 C 1091.23 960.718 1098.27 961.804 1105.53 963.063 C 1121.92 965.881 1126.98 966.508 1134.73 966.508 C 1166.03 966.508 1197.49 953.837 1215.14 934.108 C 1220.25 928.377 1223.44 923.33 1226.9 915.364 C 1232.85 901.658 1236.7 897.813 1249.08 893.232 C 1260.07 889.162 1266.39 885.091 1273.87 877.343 C 1279.43 871.553 1282.29 867.372 1284.92 861.008 C 1289.43 850.056 1288.33 840.595 1281.51 832.279 C 1280.14 830.56 1278.82 828.55 1278.65 827.807 C 1278.27 826.198 1277.72 826.773 1289.16 816.913 C 1313.2 796.209 1323.32 781.418 1324.58 765.134 C 1324.8 762.152 1324.86 757.451 1324.63 754.584 C 1323.98 743.976 1325.62 741.911 1339.54 736.235 C 1363.34 726.488 1384.91 711.35 1403.61 691.167 C 1418.34 675.284 1424.51 662.727 1425.17 647.072 C 1425.66 636.121 1423.41 628.494 1417.3 620.582 C 1410.82 612.268 1410.98 611.121 1420.16 599.195 C 1431.49 584.631 1437.64 572.532 1439.35 561.638 C 1442.43 541.798 1437.15 516.914 1427.31 504.986 C 1423.9 500.801 1422.58 498.335 1422.58 495.927 C 1422.64 493.174 1424.89 488.473 1431.6 477.12 C 1446.4 452.063 1452.45 435.951 1452.5 421.215 C 1452.55 410.779 1449.91 403.842 1443.43 397.133 C 1431.82 385.091 1418.52 385.78 1398.94 399.312 C 1395.74 401.548 1390.08 405.963 1386.28 409.23 C 1363.79 428.554 1345.04 441.857 1340.2 441.857 C 1337.83 441.857 1335.74 440.136 1331.61 434.804 C 1327.33 429.185 1322.22 421.387 1321.61 419.38 C 1321.17 417.831 1325.74 408.085 1335.47 389.851 C 1350.97 360.837 1355.71 345.929 1353.83 331.938 C 1352.18 319.323 1346.08 308.257 1338.71 304.53 C 1335.08 302.638 1329.26 302.179 1324.37 303.326 Z M 1326.34 336.066 C 1329.03 339.45 1320.01 363.417 1308.46 383.371 C 1294.17 408.141 1274.31 430.103 1243.47 455.446 C 1202.11 489.333 1160.42 512.097 1104.71 531.247 C 1083.04 538.702 1069.73 542.486 1016.71 556.535 C 967.258 569.607 944.32 576.66 926.231 584.401 C 917.326 588.242 892.133 601.144 882.672 606.764 C 854.576 623.335 841.542 638.299 833.842 662.898 C 829.168 677.577 826.686 693.69 826.748 709.056 C 826.748 723.907 828.56 733.081 833.78 744.893 C 835.654 749.136 837.96 752.92 847.864 767.828 C 849.902 770.982 852.425 775.168 853.413 777.175 C 855.07 780.616 855.122 780.788 854.185 781.877 C 852.373 783.941 849.676 784.458 840.379 784.458 L 831.525 784.458 L 828.838 782.737 C 824.761 780.099 822.506 776.544 815.413 761.522 C 798.529 725.857 796.717 717.141 797.427 676.946 C 798.035 645.296 800.402 633.54 810.687 611.293 C 822.568 585.605 837.63 570.639 865.736 556.477 C 894.007 542.314 930.957 530.789 1007.36 512.383 C 1059.32 499.884 1099.16 488.759 1114.05 482.568 C 1132.53 474.884 1165.76 454.757 1203.97 428.038 C 1243.02 400.802 1272.27 377.867 1297.73 354.473 C 1314.96 338.704 1323.86 332.97 1326.34 336.066 Z M 1424.67 420.755 C 1427.92 424.139 1418.68 445.641 1404.66 467.257 C 1396.95 479.069 1389.92 488.015 1380.29 497.991 C 1321.61 559.229 1232.51 599.653 1106.09 622.474 C 1084.14 626.431 1069.46 629.526 1052.19 633.714 C 1008.02 644.493 969.079 659.286 949.88 672.646 C 932.007 685.032 917.491 709.629 911.159 738.3 C 908.307 751.372 907.535 758.138 907.587 770.982 C 907.587 782.508 907.7 783.712 909.069 788.927 C 911.767 799.421 917.429 809.798 925.686 819.433 C 937.886 833.772 940.254 840.078 940.254 858.306 C 940.254 874.597 938.72 878.201 931.956 878.201 C 926.839 878.201 918.86 876.082 916.997 874.305 C 911.108 868.575 893.235 820.525 883.393 784.113 C 876.402 758.195 875.527 751.143 877.288 734.859 C 879.707 712.84 884.659 689.905 890.26 674.939 C 906.156 632.336 938.225 612.21 1020.29 593.289 C 1043.27 588.013 1066.25 583.485 1106.63 576.316 C 1128.35 572.475 1149.86 568.346 1160.53 565.938 C 1211.45 554.586 1239.44 542.543 1293.62 508.657 C 1338.11 480.789 1370.66 458.255 1397.56 436.696 C 1407.07 429.07 1412.46 425.286 1417.91 422.247 C 1421.99 419.953 1423.57 419.609 1424.67 420.755 Z M 1308.14 450.286 C 1311.71 453.038 1312.54 458.541 1309.9 462.327 C 1305.66 468.404 1288.61 479.356 1246.32 503.037 C 1223.87 515.651 1207.87 523.737 1199.96 526.431 C 1196.98 527.407 1193.25 527.234 1193.25 526.145 C 1193.25 525.17 1199.63 520.583 1214.97 510.663 C 1236.86 496.442 1255.12 482.969 1270.62 469.494 C 1285.42 456.65 1294.66 450.457 1301.04 449.138 C 1303.4 448.622 1306.66 449.196 1308.14 450.286 Z M 1406.74 525.859 C 1410.93 531.592 1413.78 541.054 1413.78 549.081 C 1413.78 563.816 1404.76 577.577 1384.36 594.092 C 1362.86 611.523 1336.9 626.03 1308.24 636.637 C 1288.45 643.919 1261.34 651.259 1229.27 657.968 C 1194.61 665.192 1166.3 669.722 1157.39 669.377 L 1152.83 669.205 L 1152.66 665.88 C 1152.44 662.039 1153.81 654.469 1155.41 650.628 C 1156.84 647.13 1159.31 644.493 1163.01 642.543 C 1166.69 640.594 1169.43 639.791 1182.63 636.579 C 1223.44 626.66 1288.67 600.627 1317 582.91 C 1330.63 574.367 1348.45 561.695 1369.79 545.353 C 1383.37 534.918 1390.52 529.757 1396.73 525.744 C 1402.72 521.902 1403.89 521.902 1406.74 525.859 Z M 1390.84 634.745 C 1395.15 636.579 1398.16 642.601 1397.67 648.22 C 1397.11 654.641 1393.71 660.49 1385.18 669.722 C 1365.61 690.88 1346.19 703.552 1321.38 711.464 C 1299.17 718.516 1261.11 725.628 1216.07 731.189 C 1201.77 732.966 1181.76 733.655 1177.91 732.565 C 1174.71 731.705 1172.62 729.412 1171.57 725.628 C 1169.99 720.066 1168.39 709.457 1168.28 703.896 L 1168.23 698.449 L 1173.45 697.473 C 1176.31 696.958 1186.98 695.18 1197.1 693.575 C 1230.7 688.242 1242.96 685.892 1263.64 680.616 C 1279.26 676.66 1287.67 674.251 1300.49 670.065 C 1323.65 662.497 1337.61 656.648 1359.88 645.238 C 1380.78 634.572 1386.22 632.681 1390.84 634.745 Z M 1128.9 648.621 C 1128.9 648.793 1127.42 652.176 1125.66 656.076 C 1119.39 669.664 1112.84 679.756 1109.22 681.361 C 1101.02 684.917 1080.45 688.128 1033.76 693.001 C 1018.8 694.549 1000.37 696.5 992.787 697.301 C 977.607 698.964 970.006 699.022 968.472 697.473 C 967.649 696.615 967.701 696.384 969.182 694.893 C 980.677 682.909 1052.57 660.49 1106.35 652.003 C 1111.63 651.144 1118.73 649.997 1122.03 649.424 C 1125.38 648.85 1128.24 648.392 1128.52 648.334 C 1128.74 648.334 1128.9 648.449 1128.9 648.621 Z M 865.458 661.924 C 863.204 671.27 857.984 684.4 856.604 684.4 C 855.894 684.4 855.997 683.025 857.212 678.092 C 859.353 669.32 863.204 659.286 865.407 656.648 C 866.776 655.043 866.776 656.591 865.458 661.924 Z M 1133.9 704.985 C 1135.94 707.165 1142.65 721.327 1143.04 724.366 C 1143.48 727.978 1142.88 729.527 1139.46 733.254 C 1134.46 738.757 1123.79 745.524 1116.86 747.702 C 1112.51 749.022 1099.54 750.685 1082.43 752.061 C 1058.07 753.952 1033.81 755.1 977.657 756.934 C 962.975 757.394 947.687 757.909 943.661 758.138 L 936.3 758.483 L 936.516 748.505 C 936.681 739.617 936.794 738.3 937.947 735.718 C 940.748 729.412 945.154 726.889 956.489 725.111 C 958.631 724.767 970.778 724.251 983.477 723.965 C 1020.73 723.105 1049.15 721.098 1078.03 717.313 C 1106.73 713.586 1117.08 711.121 1125.06 706.19 C 1127.63 704.641 1130.28 703.323 1131 703.323 C 1131.71 703.323 1133.03 704.067 1133.9 704.985 Z M 1290.54 753.207 C 1291.58 753.494 1293.01 754.297 1293.73 755.042 C 1294.83 756.132 1294.99 756.819 1294.99 760.432 C 1294.99 765.994 1293.46 770.924 1289.98 776.487 C 1286.63 781.877 1277.23 791.796 1270.97 796.668 C 1260.83 804.409 1254.73 805.902 1228.45 807.104 C 1185.99 808.997 1170.21 808.312 1166.96 804.583 C 1166.35 803.892 1164.49 798.335 1162.73 792.196 C 1156.56 770.409 1156.18 768.288 1158.49 767.026 C 1158.98 766.739 1163.01 766.224 1167.4 765.879 C 1178.45 764.961 1195.28 763.012 1229.27 758.597 C 1275.3 752.634 1285.65 751.717 1290.54 753.207 Z M 1129.45 779.87 C 1134.84 785.314 1136.71 795.007 1133.69 801.43 C 1129.72 809.915 1118.18 816.571 1103.5 818.806 C 1085.68 821.501 1045.92 822.877 998.68 822.302 L 963.85 821.901 L 958.734 816.396 C 944.104 800.513 939.481 794.665 938.823 791.162 C 938.112 787.325 939.646 787.149 984.257 785.03 C 987.717 784.859 1003.46 784.342 1019.18 783.884 C 1080.78 782.048 1114.33 780.156 1120.21 778.15 C 1124.06 776.831 1127.04 777.404 1129.45 779.87 Z M 858.365 814.269 C 863.76 816.279 865.736 819.375 871.728 835.257 C 879.378 855.611 880.088 861.751 875.249 865.304 C 874.539 865.822 871.399 867.824 868.207 869.776 C 860.949 874.247 850.005 882.396 836.868 893.058 C 831.257 897.646 822.126 905.095 816.515 909.625 C 810.955 914.22 805.457 918.575 804.304 919.376 L 802.214 920.811 L 800.238 919.202 C 799.136 918.342 795.348 915.022 791.827 911.927 C 788.306 908.766 782.962 904.295 779.946 901.942 C 770.701 894.718 770.865 894.893 770.865 893.342 C 770.865 890.647 772.626 888.353 783.189 877.116 C 795.286 864.103 803.1 854.81 816.628 837.151 C 829.384 820.583 833.615 816.396 839.947 814.327 C 843.684 813.184 855.173 813.126 858.365 814.269 Z M 1232.85 837.434 C 1248.63 838.527 1253.8 839.16 1256.44 840.537 C 1264.14 844.492 1262.21 852.807 1252.09 859.398 C 1245.77 863.585 1237.68 865.88 1224.33 867.423 C 1214.21 868.575 1180.32 868.399 1166.9 867.081 C 1142.71 864.788 1126.43 861.008 1121.92 856.645 C 1119.66 854.41 1119.55 852.575 1121.49 848.562 C 1124.78 841.739 1133.47 838.702 1155.3 836.692 C 1160.25 836.233 1224 836.867 1232.85 837.434 Z M 1078.03 852.349 C 1086 853.667 1089.19 855.502 1091.89 860.316 C 1094.09 864.161 1093.93 868.917 1091.51 874.997 C 1088.04 883.598 1082.31 888.929 1073.85 891.455 C 1069.73 892.658 1068.14 892.832 1058.78 892.832 C 1045.86 892.832 1037.88 891.74 1012.04 886.467 C 988.057 881.595 974.906 877.284 970.346 872.762 C 967.598 870.067 966.98 868.575 967.042 864.788 C 967.093 855.961 970.449 854.184 989.207 852.975 C 1013.84 851.373 1069.62 851.031 1078.03 852.349 Z M 1135.83 892.774 C 1149.63 895.469 1158.77 896.385 1185 897.588 C 1199.63 898.33 1202.11 899.707 1200.39 906.297 C 1199.91 908.14 1198.69 909.858 1195.28 913.47 C 1180.54 928.894 1154.8 938.187 1129.72 937.095 C 1117.9 936.577 1108.95 934.568 1093.15 928.894 C 1084.02 925.625 1084.35 925.799 1084.35 924.649 C 1084.35 922.588 1095.08 910.951 1107.13 900.049 C 1111.19 896.385 1115.6 893.283 1118.29 892.256 C 1121.49 891.048 1128.03 891.222 1135.83 892.774 Z M 964.9 906.53 C 987.607 909.69 1004.5 914.562 1020.45 922.413 C 1031.5 927.802 1044.59 938.296 1049.05 945.294 C 1052.95 951.368 1053.72 955.496 1054.71 975.399 C 1055.98 1001.32 1054.33 1018.63 1049.43 1031.25 C 1044.38 1044.15 1033.93 1054.88 1017.54 1063.76 C 1003.95 1071.22 995.097 1072.7 959.568 1073.74 C 929.804 1074.6 899.278 1073.45 888.015 1071.16 C 875.476 1068.52 874.426 1067.03 871.512 1047.36 C 870.524 1040.99 869.041 1032.68 868.156 1028.9 C 863.863 1010.6 855.122 988.872 842.86 966.108 C 837.96 957.048 837.414 954.179 839.947 950.341 C 840.822 949.023 844.23 945.469 847.586 942.425 C 875.743 916.681 891.691 908.591 920.404 905.729 C 927.827 904.979 957.694 905.496 964.9 906.53 Z M 735.172 931.473 C 749.091 936.468 773.676 955.38 792.588 975.742 C 800.619 984.342 803.368 987.896 808.155 995.812 C 823.557 1021.32 829.878 1045.59 829.003 1075.46 C 828.673 1087.21 827.953 1089.96 824.267 1093.81 C 822.836 1095.29 818.605 1098.4 814.867 1100.69 C 802.431 1108.31 788.028 1118.58 764.822 1136.46 C 717.628 1172.7 704.928 1178.78 661.701 1185.55 C 651.527 1187.1 639.758 1187.62 631.454 1186.76 C 608.964 1184.46 582.566 1179.3 563.262 1173.4 C 505.297 1155.74 446.23 1128.73 430.557 1112.67 C 423.242 1105.22 422.802 1098.1 429.071 1087.15 C 432.866 1080.56 435.891 1077.53 439.74 1076.66 C 444.415 1075.63 455.305 1075.92 479.722 1077.75 C 537.634 1082.12 549.788 1081.36 567.717 1072.31 C 579.322 1066.46 606.433 1042.78 654.002 996.897 C 699.649 952.919 725.607 930.388 730.724 930.388 C 731.548 930.388 733.524 930.839 735.172 931.473 Z" fill="#000000" stroke="none" stroke-width="2" vector-effect="non-scaling-stroke" style="transform-box: fill-box; transform-origin: 50% 50%;" transform="matrix(0.981627, -0.190809, 0.190809, 0.981627, 0.000005, -0.000012)" id="object-0"/></svg>