<svg xmlns="http://www.w3.org/2000/svg" xmlns:xlink="http://www.w3.org/1999/xlink" width="790" zoomAndPan="magnify" viewBox="0 0 592.5 248.250006" height="331" preserveAspectRatio="xMidYMid meet" version="1.0"><defs><g/><clipPath id="69ace6581b"><path d="M 404.003906 161.730469 L 406.453125 161.730469 L 406.453125 163.664062 L 404.003906 163.664062 Z M 404.003906 161.730469 " clip-rule="nonzero"/></clipPath><clipPath id="a78a9ef372"><path d="M 404.59375 163.574219 C 404.425781 163.574219 404.265625 163.492188 404.175781 163.34375 C 404.035156 163.113281 404.105469 162.804688 404.335938 162.667969 L 405.671875 161.828125 C 405.902344 161.6875 406.210938 161.75 406.347656 161.988281 C 406.488281 162.226562 406.429688 162.527344 406.191406 162.667969 L 404.855469 163.503906 C 404.773438 163.554688 404.683594 163.574219 404.59375 163.574219 " clip-rule="nonzero"/></clipPath><clipPath id="ae7578a498"><path d="M 408.640625 153.359375 L 432 153.359375 L 432 160.699219 L 408.640625 160.699219 Z M 408.640625 153.359375 " clip-rule="nonzero"/></clipPath><clipPath id="a456da38f2"><path d="M 428.332031 155.777344 C 428.144531 155.777344 427.964844 155.667969 427.882812 155.488281 C 427.773438 155.238281 427.882812 154.949219 428.132812 154.828125 L 431.285156 153.402344 C 431.542969 153.292969 431.824219 153.402344 431.941406 153.652344 C 432.0625 153.902344 431.941406 154.191406 431.703125 154.3125 L 428.550781 155.738281 C 428.484375 155.765625 428.414062 155.777344 428.351562 155.777344 M 418.613281 158.148438 C 418.59375 158.148438 418.574219 158.148438 418.550781 158.148438 L 415.121094 157.699219 C 414.855469 157.660156 414.664062 157.410156 414.695312 157.144531 C 414.722656 156.875 414.972656 156.683594 415.242188 156.714844 L 418.671875 157.164062 C 418.941406 157.203125 419.128906 157.453125 419.101562 157.722656 C 419.070312 157.96875 418.863281 158.148438 418.613281 158.148438 M 422.113281 158.609375 C 422.09375 158.609375 422.070312 158.609375 422.050781 158.609375 C 421.78125 158.578125 421.554688 158.328125 421.59375 158.050781 C 421.625 157.8125 421.792969 157.632812 422.023438 157.613281 L 425.003906 156.265625 C 425.261719 156.144531 425.542969 156.265625 425.660156 156.515625 C 425.78125 156.765625 425.660156 157.054688 425.421875 157.171875 L 422.320312 158.570312 C 422.25 158.597656 422.179688 158.609375 422.113281 158.609375 M 409.152344 160.621094 C 408.992188 160.621094 408.832031 160.542969 408.730469 160.394531 C 408.582031 160.164062 408.652344 159.855469 408.890625 159.714844 L 411.824219 157.878906 C 412.050781 157.742188 412.359375 157.8125 412.5 158.039062 C 412.640625 158.269531 412.582031 158.578125 412.339844 158.71875 L 409.410156 160.550781 C 409.332031 160.601562 409.242188 160.632812 409.152344 160.632812 " clip-rule="nonzero"/></clipPath><clipPath id="613a91cf34"><path d="M 434.011719 151.171875 L 438 151.171875 L 438 153.230469 L 434.011719 153.230469 Z M 434.011719 151.171875 " clip-rule="nonzero"/></clipPath><clipPath id="a17764f686"><path d="M 437.414062 153.113281 C 437.324219 153.113281 437.234375 153.09375 437.15625 153.046875 L 436.039062 152.347656 L 434.84375 152.886719 C 434.59375 153.003906 434.304688 152.886719 434.183594 152.636719 C 434.066406 152.386719 434.183594 152.097656 434.433594 151.976562 L 435.871094 151.332031 C 436.019531 151.261719 436.199219 151.269531 436.339844 151.359375 L 437.675781 152.199219 C 437.902344 152.335938 437.972656 152.644531 437.835938 152.875 C 437.734375 153.023438 437.574219 153.105469 437.414062 153.105469 " clip-rule="nonzero"/></clipPath><clipPath id="aa6448d322"><path d="M 438.777344 153.230469 L 441.867188 153.230469 L 441.867188 155.550781 L 438.777344 155.550781 Z M 438.777344 153.230469 " clip-rule="nonzero"/></clipPath><clipPath id="63ef14ad7b"><path d="M 441.265625 155.519531 C 441.175781 155.519531 441.085938 155.496094 441.003906 155.449219 L 439.082031 154.242188 C 438.851562 154.101562 438.78125 153.792969 438.921875 153.5625 C 439.0625 153.335938 439.378906 153.273438 439.597656 153.402344 L 441.523438 154.609375 C 441.753906 154.75 441.820312 155.058594 441.683594 155.289062 C 441.582031 155.4375 441.421875 155.519531 441.265625 155.519531 " clip-rule="nonzero"/></clipPath><clipPath id="18fa1e6027"><path d="M 442.640625 155.292969 L 446.117188 155.292969 L 446.117188 157.609375 L 442.640625 157.609375 Z M 442.640625 155.292969 " clip-rule="nonzero"/></clipPath><clipPath id="abe045fe55"><path d="M 444.535156 157.5625 C 444.445312 157.5625 444.355469 157.542969 444.273438 157.492188 L 442.9375 156.652344 C 442.710938 156.503906 442.640625 156.207031 442.78125 155.976562 C 442.917969 155.746094 443.238281 155.675781 443.457031 155.816406 L 444.425781 156.425781 L 445.132812 155.539062 C 445.300781 155.328125 445.621094 155.289062 445.832031 155.457031 C 446.039062 155.628906 446.078125 155.9375 445.910156 156.15625 L 444.921875 157.390625 C 444.824219 157.511719 444.683594 157.582031 444.535156 157.582031 " clip-rule="nonzero"/></clipPath><clipPath id="43b88c0049"><path d="M 413.535156 140.480469 L 428.988281 140.480469 L 428.988281 159 L 413.535156 159 Z M 413.535156 140.480469 " clip-rule="nonzero"/></clipPath><clipPath id="9ad1ff5d90"><path d="M 426.519531 142.558594 C 424.496094 140.773438 422.070312 140.601562 421.34375 140.574219 C 420.535156 140.5625 418.09375 140.644531 416.128906 142.308594 C 413.199219 144.789062 413.609375 148.847656 413.65625 149.355469 C 413.65625 149.355469 413.65625 149.355469 413.65625 149.367188 C 413.65625 149.375 413.65625 149.367188 413.65625 149.367188 C 413.847656 150.492188 414.375 152.707031 416.109375 154.929688 C 418.035156 157.382812 420.398438 158.519531 421.492188 158.96875 C 422.808594 158.300781 425.410156 156.765625 427.234375 153.773438 C 428.125 152.316406 428.582031 150.941406 428.820312 149.882812 C 428.882812 149.605469 429.6875 145.378906 426.507812 142.558594 " clip-rule="nonzero"/></clipPath><clipPath id="f8dc99d1ff"><path d="M 417.785156 144.859375 L 424.738281 144.859375 L 424.738281 151.429688 L 417.785156 151.429688 Z M 417.785156 144.859375 " clip-rule="nonzero"/></clipPath><clipPath id="c2c57bd120"><path d="M 424.683594 148.160156 C 424.683594 149.953125 423.160156 151.398438 421.285156 151.398438 C 419.410156 151.398438 417.882812 149.945312 417.882812 148.160156 C 417.882812 146.375 419.410156 144.917969 421.285156 144.917969 C 423.160156 144.917969 424.683594 146.375 424.683594 148.160156 " clip-rule="nonzero"/></clipPath><clipPath id="1e64949446"><path d="M 5.613281 16.148438 L 27.972656 16.148438 L 27.972656 77 L 5.613281 77 Z M 5.613281 16.148438 " clip-rule="nonzero"/></clipPath><clipPath id="fb07d286d4"><path d="M 23.316406 76.816406 L 5.628906 76.816406 L 9.875 16.351562 L 27.5625 16.351562 Z M 23.316406 76.816406 " clip-rule="nonzero"/></clipPath><clipPath id="4a603a2a88"><path d="M 33.355469 30.230469 L 79.734375 30.230469 L 79.734375 77 L 33.355469 77 Z M 33.355469 30.230469 " clip-rule="nonzero"/></clipPath><clipPath id="139c140947"><path d="M 51.46875 58.144531 L 50.28125 76.816406 L 33.582031 76.816406 L 36.644531 32.75 L 52.058594 30.476562 L 52.65625 39.769531 C 57.300781 33.546875 62.335938 30.476562 67.382812 30.476562 C 74.789062 30.476562 79.433594 34.238281 79.433594 43.519531 C 79.433594 51.324219 75.976562 71.773438 75.675781 76.816406 L 58.976562 76.816406 C 59.664062 72.074219 62.335938 53.5 62.335938 48.363281 C 62.335938 44.90625 61.050781 43.617188 59.375 43.617188 C 57.402344 43.617188 53.054688 44.703125 51.46875 58.144531 " clip-rule="nonzero"/></clipPath><clipPath id="a3c29f9f55"><path d="M 71.453125 6.625 L 120.730469 6.625 L 120.730469 101 L 71.453125 101 Z M 71.453125 6.625 " clip-rule="nonzero"/></clipPath><clipPath id="2c51a650bc"><path d="M 71.71875 99.050781 L 75.277344 85.410156 C 76.066406 86.101562 78.339844 86.300781 80.222656 86.300781 C 83.183594 86.300781 85.855469 85.210938 86.054688 80.566406 L 88.226562 43.019531 L 82.785156 43.019531 L 82.984375 34.425781 L 88.917969 32.453125 L 88.917969 31.664062 C 90.101562 12.691406 102.65625 6.859375 111.9375 6.859375 C 116.085938 6.859375 119.144531 7.347656 120.53125 7.847656 L 117.46875 20.988281 C 116.382812 20.488281 112.925781 20.097656 111.148438 20.097656 C 108.289062 20.097656 106.304688 21.875 106.203125 24.945312 L 105.707031 32.351562 L 113.613281 32.351562 L 111.9375 43.019531 L 105.117188 43.019531 L 102.945312 77.503906 C 101.855469 94.40625 88.816406 100.625 79.324219 100.625 C 76.753906 100.625 72.90625 100.136719 71.71875 99.050781 " clip-rule="nonzero"/></clipPath><clipPath id="d1112bba88"><path d="M 111.621094 30.230469 L 155.515625 30.230469 L 155.515625 79 L 111.621094 79 Z M 111.621094 30.230469 " clip-rule="nonzero"/></clipPath><clipPath id="fe3ca3309f"><path d="M 138.117188 50.539062 C 138.117188 43.519531 136.832031 40.957031 133.171875 40.957031 C 128.925781 40.957031 128.625 51.921875 128.625 58.644531 C 128.625 66.148438 129.515625 68.222656 133.671875 68.222656 C 137.828125 68.222656 138.117188 57.65625 138.117188 50.539062 M 130.410156 78.691406 C 120.53125 78.691406 111.636719 73.058594 111.636719 57.84375 C 111.636719 44.40625 120.03125 30.476562 136.34375 30.476562 C 147.308594 30.476562 155.117188 36.109375 155.117188 51.324219 C 155.117188 64.765625 147.011719 78.691406 130.410156 78.691406 " clip-rule="nonzero"/></clipPath><clipPath id="36a722dab0"><path d="M 157.585938 4.96875 L 206.449219 4.96875 L 206.449219 79 L 157.585938 79 Z M 157.585938 4.96875 " clip-rule="nonzero"/></clipPath><clipPath id="9e769096f8"><path d="M 186.132812 53.597656 L 187.019531 42.230469 C 185.632812 41.832031 184.058594 41.632812 182.175781 41.632812 C 176.839844 41.632812 175.253906 48.253906 175.253906 58.734375 C 175.253906 65.351562 176.839844 66.839844 179.015625 66.839844 C 182.472656 66.839844 185.136719 62.191406 186.121094 53.597656 M 185.335938 71.382812 C 181.875 75.332031 177.128906 78.402344 171.308594 78.402344 C 161.027344 78.402344 157.769531 70.496094 157.769531 61.214844 C 157.769531 38.492188 174.367188 30.488281 184.746094 30.488281 C 185.734375 30.488281 186.820312 30.585938 187.808594 30.6875 L 189.582031 7.269531 L 206.28125 4.984375 L 201.4375 76.816406 L 185.625 78.691406 Z M 185.335938 71.382812 " clip-rule="nonzero"/></clipPath><clipPath id="a67bb37d4e"><path d="M 208.519531 30.230469 L 248 30.230469 L 248 79 L 208.519531 79 Z M 208.519531 30.230469 " clip-rule="nonzero"/></clipPath><clipPath id="eb336c2862"><path d="M 224.855469 51.824219 C 229.699219 50.835938 232.761719 48.464844 232.761719 44.414062 C 232.761719 42.542969 232.164062 40.855469 230.191406 40.855469 C 225.742188 40.855469 224.855469 47.277344 224.855469 51.824219 M 208.554688 59.03125 C 208.554688 37.585938 222.382812 30.476562 232.863281 30.476562 C 242.441406 30.476562 247.875 35.8125 247.875 42.730469 C 247.875 51.625 238.296875 58.542969 225.644531 60.21875 C 226.53125 66.050781 229.402344 66.640625 232.164062 66.640625 C 234.039062 66.640625 238.09375 65.550781 242.832031 62.09375 L 246.492188 71.574219 C 241.746094 75.132812 235.324219 78.691406 226.828125 78.691406 C 215.863281 78.691406 208.554688 72.472656 208.554688 59.03125 " clip-rule="nonzero"/></clipPath><clipPath id="650a69995a"><path d="M 251 30.230469 L 324 30.230469 L 324 77 L 251 77 Z M 251 30.230469 " clip-rule="nonzero"/></clipPath><clipPath id="0790b7044b"><path d="M 269.023438 61.703125 L 267.933594 76.816406 L 251.136719 76.816406 L 254.195312 32.75 L 269.609375 30.476562 L 270.109375 40.058594 C 274.855469 33.636719 279.988281 30.476562 285.125 30.476562 C 291.542969 30.476562 295.691406 33.238281 296.777344 39.859375 C 301.523438 33.539062 306.660156 30.476562 311.703125 30.476562 C 319.109375 30.476562 323.65625 34.238281 323.65625 43.519531 C 323.65625 51.324219 319.898438 71.773438 319.609375 76.816406 L 302.910156 76.816406 C 303.5 72.074219 306.570312 53.5 306.570312 48.363281 C 306.570312 44.90625 305.28125 43.617188 303.707031 43.617188 C 301.832031 43.617188 297.875 44.605469 296.101562 55.773438 C 296 57.355469 295.800781 58.933594 295.613281 60.617188 C 295.613281 61.015625 295.511719 61.40625 295.511719 61.804688 L 295.511719 61.703125 C 294.722656 68.222656 293.835938 74.34375 293.738281 76.816406 L 277.039062 76.617188 C 277.636719 71.871094 280 53.300781 280 48.066406 C 280 44.605469 278.8125 43.617188 277.136719 43.617188 C 274.964844 43.617188 270.019531 44.90625 269.03125 61.792969 Z M 269.023438 61.703125 " clip-rule="nonzero"/></clipPath><clipPath id="726b448f47"><path d="M 328.609375 9.109375 L 350.554688 9.109375 L 350.554688 77 L 328.609375 77 Z M 328.609375 9.109375 " clip-rule="nonzero"/></clipPath><clipPath id="87c18851b8"><path d="M 340.84375 9.132812 C 344.003906 9.132812 350.425781 13.28125 350.425781 16.839844 C 350.425781 20.398438 344.792969 26.519531 340.945312 26.519531 C 337.683594 26.519531 331.265625 22.371094 331.265625 18.8125 C 331.265625 15.554688 336.699219 9.132812 340.84375 9.132812 M 348.550781 30.476562 L 345.292969 76.816406 L 328.691406 76.816406 L 331.851562 32.75 Z M 348.550781 30.476562 " clip-rule="nonzero"/></clipPath><clipPath id="77522f4e0f"><path d="M 352 30.230469 L 395.691406 30.230469 L 395.691406 79 L 352 79 Z M 352 30.230469 " clip-rule="nonzero"/></clipPath><clipPath id="263df59a2c"><path d="M 378.679688 50.539062 C 378.679688 43.519531 377.394531 40.957031 373.734375 40.957031 C 369.488281 40.957031 369.191406 51.921875 369.191406 58.644531 C 369.191406 66.148438 370.078125 68.222656 374.222656 68.222656 C 378.371094 68.222656 378.671875 57.65625 378.671875 50.539062 M 370.964844 78.691406 C 361.085938 78.691406 352.191406 73.058594 352.191406 57.84375 C 352.191406 44.40625 360.585938 30.476562 376.894531 30.476562 C 387.863281 30.476562 395.667969 36.109375 395.667969 51.324219 C 395.667969 64.765625 387.5625 78.691406 370.964844 78.691406 " clip-rule="nonzero"/></clipPath><clipPath id="89b6752a98"><path d="M 399.417969 4.96875 L 425.507812 4.96875 L 425.507812 79 L 399.417969 79 Z M 399.417969 4.96875 " clip-rule="nonzero"/></clipPath><clipPath id="3fab48c68f"><path d="M 425.410156 73.945312 C 420.273438 76.617188 414.441406 78.691406 410.195312 78.691406 C 403.773438 78.691406 399.628906 75.332031 399.628906 67.625 C 399.628906 57.644531 402.390625 35.023438 404.5625 7.257812 L 421.261719 4.984375 C 418.789062 37 416.617188 54.683594 416.617188 61.40625 C 416.617188 62.390625 417.203125 64.367188 418.789062 64.367188 C 420.5625 64.367188 422.050781 63.578125 423.4375 63.078125 Z M 425.410156 73.945312 " clip-rule="nonzero"/></clipPath><clipPath id="7cd3bc763f"><path d="M 427.164062 30.230469 L 471 30.230469 L 471 79 L 427.164062 79 Z M 427.164062 30.230469 " clip-rule="nonzero"/></clipPath><clipPath id="9811fff49f"><path d="M 453.765625 50.539062 C 453.765625 43.519531 452.476562 40.957031 448.820312 40.957031 C 444.570312 40.957031 444.273438 51.921875 444.273438 58.644531 C 444.273438 66.148438 445.160156 68.222656 449.308594 68.222656 C 453.453125 68.222656 453.753906 57.65625 453.753906 50.539062 M 446.046875 78.691406 C 436.167969 78.691406 427.273438 73.058594 427.273438 57.84375 C 427.273438 44.40625 435.667969 30.476562 451.980469 30.476562 C 462.945312 30.476562 470.753906 36.109375 470.753906 51.324219 C 470.753906 64.765625 462.648438 78.691406 446.058594 78.691406 " clip-rule="nonzero"/></clipPath><clipPath id="17ca98e6a4"><path d="M 467 45.136719 L 512.464844 45.136719 L 512.464844 101.039062 L 467 101.039062 Z M 467 45.136719 " clip-rule="nonzero"/></clipPath><clipPath id="6218da6e1a"><path d="M 498.519531 84.226562 C 498.519531 81.066406 496.746094 81.066406 488.339844 79.777344 C 486.953125 79.578125 485.765625 79.28125 484.582031 78.992188 C 482.804688 80.378906 481.421875 82.050781 481.421875 84.324219 C 481.421875 86.796875 483.496094 89.171875 488.929688 89.171875 C 495.945312 89.171875 498.507812 86.796875 498.507812 84.234375 M 512.136719 45.292969 C 511.917969 46.996094 511.011719 52.5 506.304688 56.957031 C 499.824219 63.078125 491.488281 62.164062 490.3125 62.011719 L 489.726562 62.011719 C 489.425781 62.3125 489.425781 62.601562 489.425781 62.800781 C 489.425781 64.675781 489.726562 65.660156 499.207031 66.648438 C 509.875 67.933594 512.148438 72.769531 512.148438 79.199219 C 512.148438 90.167969 499.796875 101.035156 485.078125 101.035156 C 472.429688 101.035156 467.195312 96 467.195312 89.769531 C 467.195312 84.734375 469.464844 80.675781 478.160156 75.929688 C 475.6875 73.957031 474.800781 71.582031 474.898438 69.210938 C 474.800781 66.9375 477.074219 63.277344 480.832031 60.417969 C 479.285156 59.71875 478.011719 58.800781 476.992188 57.675781 C 473.785156 54.125 473.804688 49.429688 473.824219 47.664062 C 473.832031 46.648438 473.921875 45.820312 474.003906 45.28125 " clip-rule="nonzero"/></clipPath><clipPath id="031c2eb3ed"><path d="M 515 30.230469 L 535.242188 30.230469 L 535.242188 77 L 515 77 Z M 515 30.230469 " clip-rule="nonzero"/></clipPath><clipPath id="9a47780c49"><path d="M 531.816406 76.816406 L 515.21875 76.816406 L 518.378906 32.75 L 535.078125 30.476562 Z M 531.816406 76.816406 " clip-rule="nonzero"/></clipPath><clipPath id="0ae3c2d8ca"><path d="M 538.554688 30.230469 L 586 30.230469 L 586 79 L 538.554688 79 Z M 538.554688 30.230469 " clip-rule="nonzero"/></clipPath><clipPath id="b931ee7292"><path d="M 568.367188 48.851562 L 568.367188 48.953125 L 568.957031 42.53125 C 568.070312 42.03125 566.980469 41.742188 565.496094 41.742188 C 560.5625 41.742188 556.402344 43.617188 556.402344 59.730469 C 556.402344 66.148438 558.976562 66.847656 560.164062 66.847656 C 562.835938 66.847656 567.082031 63.988281 568.359375 48.863281 M 567.371094 70.894531 C 562.824219 75.542969 558.179688 78.703125 552.257812 78.703125 C 544.648438 78.703125 538.71875 73.269531 538.71875 60.617188 C 538.71875 42.929688 550.769531 30.476562 566.382812 30.476562 C 575.476562 30.476562 581.898438 32.164062 585.945312 34.238281 L 582.984375 76.816406 L 568.160156 78.691406 Z M 567.371094 70.894531 " clip-rule="nonzero"/></clipPath><clipPath id="abec1f7061"><path d="M 520.335938 78.679688 L 525.71875 78.679688 L 525.71875 94 L 520.335938 94 Z M 520.335938 78.679688 " clip-rule="nonzero"/></clipPath><clipPath id="2334096c2b"><path d="M 524.421875 93.957031 L 520.671875 93.71875 C 520.992188 88.800781 521.308594 83.875 521.628906 78.960938 C 522.886719 78.941406 524.152344 78.929688 525.40625 78.910156 Z M 524.421875 93.957031 " clip-rule="nonzero"/></clipPath><clipPath id="b89d93333b"><path d="M 523 17.390625 L 531.515625 17.390625 L 531.515625 30.644531 L 523 30.644531 Z M 523 17.390625 " clip-rule="nonzero"/></clipPath><clipPath id="d1bb74b56c"><path d="M 531.449219 18.203125 L 523.953125 17.714844 L 523.15625 29.898438 L 530.652344 30.386719 Z M 531.449219 18.203125 " clip-rule="nonzero"/></clipPath><clipPath id="ad3c2655d8"><path d="M 519.507812 13.25 L 536.484375 13.25 L 536.484375 17.390625 L 519.507812 17.390625 Z M 519.507812 13.25 " clip-rule="nonzero"/></clipPath><clipPath id="e6b1970d29"><path d="M 535.996094 17.039062 L 519.59375 15.972656 L 519.765625 13.398438 L 536.164062 14.464844 Z M 535.996094 17.039062 " clip-rule="nonzero"/></clipPath><clipPath id="f78413747d"><path d="M 518 28 L 536.898438 28 L 536.898438 32.714844 L 518 32.714844 Z M 518 28 " clip-rule="nonzero"/></clipPath><clipPath id="bb1c62f768"><path d="M 518.128906 30.699219 L 536.515625 28.105469 L 536.792969 30.078125 L 518.410156 32.671875 Z M 518.128906 30.699219 " clip-rule="nonzero"/></clipPath><clipPath id="dbac440b8a"><path d="M 488.25 23.257812 L 495.847656 23.257812 L 495.847656 30.855469 L 488.25 30.855469 Z M 488.25 23.257812 " clip-rule="nonzero"/></clipPath><clipPath id="f9cae7376e"><path d="M 499.683594 25.382812 L 503.023438 25.382812 L 503.023438 28.722656 L 499.683594 28.722656 Z M 499.683594 25.382812 " clip-rule="nonzero"/></clipPath><clipPath id="44d685c98e"><path d="M 481.730469 19.113281 L 485.070312 19.113281 L 485.070312 22.441406 L 481.730469 22.441406 Z M 481.730469 19.113281 " clip-rule="nonzero"/></clipPath><clipPath id="eb7000d06c"><path d="M 486.277344 35.621094 L 491.03125 35.621094 L 491.03125 40.386719 L 486.277344 40.386719 Z M 486.277344 35.621094 " clip-rule="nonzero"/></clipPath><clipPath id="8648beaa64"><path d="M 478.648438 38.574219 L 483.40625 38.574219 L 483.40625 43.328125 L 478.648438 43.328125 Z M 478.648438 38.574219 " clip-rule="nonzero"/></clipPath><clipPath id="529015c894"><path d="M 502.1875 38.003906 L 506.945312 38.003906 L 506.945312 42.761719 L 502.1875 42.761719 Z M 502.1875 38.003906 " clip-rule="nonzero"/></clipPath><clipPath id="9c10b7f329"><path d="M 505.488281 16.570312 L 510.242188 16.570312 L 510.242188 21.335938 L 505.488281 21.335938 Z M 505.488281 16.570312 " clip-rule="nonzero"/></clipPath><clipPath id="70ce058c7f"><path d="M 493.953125 12.722656 L 497.292969 12.722656 L 497.292969 16.050781 L 493.953125 16.050781 Z M 493.953125 12.722656 " clip-rule="nonzero"/></clipPath><clipPath id="774873b359"><path d="M 517.4375 15.734375 L 536.898438 15.734375 L 536.898438 19.460938 L 517.4375 19.460938 Z M 517.4375 15.734375 " clip-rule="nonzero"/></clipPath><clipPath id="09075cf699"><path d="M 517.859375 15.921875 C 521.082031 16.140625 524.3125 16.351562 527.53125 16.558594 C 530.632812 16.769531 533.734375 16.96875 536.832031 17.179688 L 536.703125 19.171875 C 533.601562 18.960938 530.503906 18.761719 527.402344 18.554688 C 524.179688 18.34375 520.949219 18.125 517.730469 17.914062 Z M 517.859375 15.921875 " clip-rule="nonzero"/></clipPath></defs><g clip-path="url(#69ace6581b)"><g clip-path="url(#a78a9ef372)"><path fill="#ffffff" d="M 399.109375 135.585938 L 451.011719 135.585938 L 451.011719 168.554688 L 399.109375 168.554688 Z M 399.109375 135.585938 " fill-opacity="1" fill-rule="nonzero"/></g></g><g clip-path="url(#ae7578a498)"><g clip-path="url(#a456da38f2)"><path fill="#ffffff" d="M 399.109375 135.585938 L 451.011719 135.585938 L 451.011719 168.554688 L 399.109375 168.554688 Z M 399.109375 135.585938 " fill-opacity="1" fill-rule="nonzero"/></g></g><g clip-path="url(#613a91cf34)"><g clip-path="url(#a17764f686)"><path fill="#ffffff" d="M 399.109375 135.585938 L 451.011719 135.585938 L 451.011719 168.554688 L 399.109375 168.554688 Z M 399.109375 135.585938 " fill-opacity="1" fill-rule="nonzero"/></g></g><g clip-path="url(#aa6448d322)"><g clip-path="url(#63ef14ad7b)"><path fill="#ffffff" d="M 399.109375 135.585938 L 451.011719 135.585938 L 451.011719 168.554688 L 399.109375 168.554688 Z M 399.109375 135.585938 " fill-opacity="1" fill-rule="nonzero"/></g></g><g clip-path="url(#18fa1e6027)"><g clip-path="url(#abe045fe55)"><path fill="#ffffff" d="M 399.109375 135.585938 L 451.011719 135.585938 L 451.011719 168.554688 L 399.109375 168.554688 Z M 399.109375 135.585938 " fill-opacity="1" fill-rule="nonzero"/></g></g><g clip-path="url(#43b88c0049)"><g clip-path="url(#9ad1ff5d90)"><path fill="#e30614" d="M 399.109375 135.585938 L 451.011719 135.585938 L 451.011719 168.554688 L 399.109375 168.554688 Z M 399.109375 135.585938 " fill-opacity="1" fill-rule="nonzero"/></g></g><g clip-path="url(#f8dc99d1ff)"><g clip-path="url(#c2c57bd120)"><path fill="#ffffff" d="M 399.109375 135.585938 L 451.011719 135.585938 L 451.011719 168.554688 L 399.109375 168.554688 Z M 399.109375 135.585938 " fill-opacity="1" fill-rule="nonzero"/></g></g><g clip-path="url(#1e64949446)"><g clip-path="url(#fb07d286d4)"><path fill="#2f5497" d="M 0.644531 0 L 591.144531 0 L 591.144531 106.007812 L 0.644531 106.007812 Z M 0.644531 0 " fill-opacity="1" fill-rule="nonzero"/></g></g><g clip-path="url(#4a603a2a88)"><g clip-path="url(#139c140947)"><path fill="#2f5497" d="M 0.644531 0 L 591.144531 0 L 591.144531 106.007812 L 0.644531 106.007812 Z M 0.644531 0 " fill-opacity="1" fill-rule="nonzero"/></g></g><g clip-path="url(#a3c29f9f55)"><g clip-path="url(#2c51a650bc)"><path fill="#2f5497" d="M 0.644531 0 L 591.144531 0 L 591.144531 106.007812 L 0.644531 106.007812 Z M 0.644531 0 " fill-opacity="1" fill-rule="nonzero"/></g></g><g clip-path="url(#d1112bba88)"><g clip-path="url(#fe3ca3309f)"><path fill="#2f5497" d="M 0.644531 0 L 591.144531 0 L 591.144531 106.007812 L 0.644531 106.007812 Z M 0.644531 0 " fill-opacity="1" fill-rule="nonzero"/></g></g><g clip-path="url(#36a722dab0)"><g clip-path="url(#9e769096f8)"><path fill="#2f5497" d="M 0.644531 0 L 591.144531 0 L 591.144531 106.007812 L 0.644531 106.007812 Z M 0.644531 0 " fill-opacity="1" fill-rule="nonzero"/></g></g><g clip-path="url(#a67bb37d4e)"><g clip-path="url(#eb336c2862)"><path fill="#2f5497" d="M 0.644531 0 L 591.144531 0 L 591.144531 106.007812 L 0.644531 106.007812 Z M 0.644531 0 " fill-opacity="1" fill-rule="nonzero"/></g></g><g clip-path="url(#650a69995a)"><g clip-path="url(#0790b7044b)"><path fill="#2f5497" d="M 0.644531 0 L 591.144531 0 L 591.144531 106.007812 L 0.644531 106.007812 Z M 0.644531 0 " fill-opacity="1" fill-rule="nonzero"/></g></g><g clip-path="url(#726b448f47)"><g clip-path="url(#87c18851b8)"><path fill="#2f5497" d="M 0.644531 0 L 591.144531 0 L 591.144531 106.007812 L 0.644531 106.007812 Z M 0.644531 0 " fill-opacity="1" fill-rule="nonzero"/></g></g><g clip-path="url(#77522f4e0f)"><g clip-path="url(#263df59a2c)"><path fill="#2f5497" d="M 0.644531 0 L 591.144531 0 L 591.144531 106.007812 L 0.644531 106.007812 Z M 0.644531 0 " fill-opacity="1" fill-rule="nonzero"/></g></g><g clip-path="url(#89b6752a98)"><g clip-path="url(#3fab48c68f)"><path fill="#2f5497" d="M 0.644531 0 L 591.144531 0 L 591.144531 106.007812 L 0.644531 106.007812 Z M 0.644531 0 " fill-opacity="1" fill-rule="nonzero"/></g></g><g clip-path="url(#7cd3bc763f)"><g clip-path="url(#9811fff49f)"><path fill="#2f5497" d="M 0.644531 0 L 591.144531 0 L 591.144531 106.007812 L 0.644531 106.007812 Z M 0.644531 0 " fill-opacity="1" fill-rule="nonzero"/></g></g><g clip-path="url(#17ca98e6a4)"><g clip-path="url(#6218da6e1a)"><path fill="#2f5497" d="M 0.644531 0 L 591.144531 0 L 591.144531 106.007812 L 0.644531 106.007812 Z M 0.644531 0 " fill-opacity="1" fill-rule="nonzero"/></g></g><g clip-path="url(#031c2eb3ed)"><g clip-path="url(#9a47780c49)"><path fill="#2f5497" d="M 0.644531 0 L 591.144531 0 L 591.144531 106.007812 L 0.644531 106.007812 Z M 0.644531 0 " fill-opacity="1" fill-rule="nonzero"/></g></g><g clip-path="url(#0ae3c2d8ca)"><g clip-path="url(#b931ee7292)"><path fill="#2f5497" d="M 0.644531 0 L 591.144531 0 L 591.144531 106.007812 L 0.644531 106.007812 Z M 0.644531 0 " fill-opacity="1" fill-rule="nonzero"/></g></g><g clip-path="url(#abec1f7061)"><g clip-path="url(#2334096c2b)"><path fill="#1f3864" d="M 0.644531 0 L 591.144531 0 L 591.144531 106.007812 L 0.644531 106.007812 Z M 0.644531 0 " fill-opacity="1" fill-rule="nonzero"/></g></g><g clip-path="url(#b89d93333b)"><g clip-path="url(#d1bb74b56c)"><path fill="#8faad9" d="M 0.644531 0 L 591.144531 0 L 591.144531 106.007812 L 0.644531 106.007812 Z M 0.644531 0 " fill-opacity="1" fill-rule="nonzero"/></g></g><g clip-path="url(#ad3c2655d8)"><g clip-path="url(#e6b1970d29)"><path fill="#2f5497" d="M 0.644531 0 L 591.144531 0 L 591.144531 106.007812 L 0.644531 106.007812 Z M 0.644531 0 " fill-opacity="1" fill-rule="nonzero"/></g></g><g clip-path="url(#f78413747d)"><g clip-path="url(#bb1c62f768)"><path fill="#ffffff" d="M 0.644531 0 L 591.144531 0 L 591.144531 106.007812 L 0.644531 106.007812 Z M 0.644531 0 " fill-opacity="1" fill-rule="nonzero"/></g></g><g clip-path="url(#dbac440b8a)"><path fill="#1b3f71" d="M 0.644531 0 L 591.144531 0 L 591.144531 106.007812 L 0.644531 106.007812 Z M 0.644531 0 " fill-opacity="1" fill-rule="nonzero"/></g><g clip-path="url(#f9cae7376e)"><path fill="#486ea5" d="M 0.644531 0 L 591.144531 0 L 591.144531 106.007812 L 0.644531 106.007812 Z M 0.644531 0 " fill-opacity="1" fill-rule="nonzero"/></g><g clip-path="url(#44d685c98e)"><path fill="#e94e1b" d="M 0.644531 0 L 591.144531 0 L 591.144531 106.007812 L 0.644531 106.007812 Z M 0.644531 0 " fill-opacity="1" fill-rule="nonzero"/></g><g clip-path="url(#eb7000d06c)"><path fill="#8faad9" d="M 0.644531 0 L 591.144531 0 L 591.144531 106.007812 L 0.644531 106.007812 Z M 0.644531 0 " fill-opacity="1" fill-rule="nonzero"/></g><g clip-path="url(#8648beaa64)"><path fill="#e94e1b" d="M 0.644531 0 L 591.144531 0 L 591.144531 106.007812 L 0.644531 106.007812 Z M 0.644531 0 " fill-opacity="1" fill-rule="nonzero"/></g><g clip-path="url(#529015c894)"><path fill="#2f5498" d="M 0.644531 0 L 591.144531 0 L 591.144531 106.007812 L 0.644531 106.007812 Z M 0.644531 0 " fill-opacity="1" fill-rule="nonzero"/></g><g clip-path="url(#9c10b7f329)"><path fill="#e94e1b" d="M 0.644531 0 L 591.144531 0 L 591.144531 106.007812 L 0.644531 106.007812 Z M 0.644531 0 " fill-opacity="1" fill-rule="nonzero"/></g><g clip-path="url(#70ce058c7f)"><path fill="#486ea5" d="M 0.644531 0 L 591.144531 0 L 591.144531 106.007812 L 0.644531 106.007812 Z M 0.644531 0 " fill-opacity="1" fill-rule="nonzero"/></g><g clip-path="url(#774873b359)"><g clip-path="url(#09075cf699)"><path fill="#ffffff" d="M 0.644531 0 L 591.144531 0 L 591.144531 106.007812 L 0.644531 106.007812 Z M 0.644531 0 " fill-opacity="1" fill-rule="nonzero"/></g></g><g fill="#2f5497" fill-opacity="1"><g transform="translate(47.489036, 152.465653)"><g><path d="M 17.9375 0.796875 C 13.113281 0.796875 9.265625 -0.726562 6.390625 -3.78125 C 3.515625 -6.832031 2.078125 -11.414062 2.078125 -17.53125 C 2.078125 -23.769531 3.335938 -28.394531 5.859375 -31.40625 C 8.378906 -34.414062 12.09375 -35.921875 17 -35.921875 C 21.90625 -35.921875 25.617188 -34.414062 28.140625 -31.40625 C 30.660156 -28.394531 31.921875 -23.769531 31.921875 -17.53125 L 31.921875 -15.25 L 11.84375 -15.25 L 11.84375 -13.046875 C 11.84375 -11.085938 12.441406 -9.515625 13.640625 -8.328125 C 14.847656 -7.148438 16.5 -6.5625 18.59375 -6.5625 C 20.332031 -6.5625 21.816406 -6.953125 23.046875 -7.734375 C 24.273438 -8.515625 25.398438 -9.59375 26.421875 -10.96875 L 31.171875 -5.421875 C 29.742188 -3.503906 27.925781 -1.988281 25.71875 -0.875 C 23.507812 0.238281 20.914062 0.796875 17.9375 0.796875 Z M 17 -28.90625 C 13.5625 -28.90625 11.84375 -26.894531 11.84375 -22.875 L 11.84375 -20.734375 L 22.140625 -20.734375 L 22.140625 -22.875 C 22.140625 -26.894531 20.425781 -28.90625 17 -28.90625 Z M 17 -28.90625 "/></g></g></g><g fill="#2f5497" fill-opacity="1"><g transform="translate(80.804825, 152.465653)"><g><path d="M 4.078125 0 L 4.078125 -35.125 L 13.453125 -35.125 L 13.453125 -29.171875 L 14.515625 -29.171875 C 14.785156 -30.109375 15.144531 -30.976562 15.59375 -31.78125 C 16.039062 -32.582031 16.597656 -33.296875 17.265625 -33.921875 C 17.929688 -34.546875 18.707031 -35.035156 19.59375 -35.390625 C 20.488281 -35.742188 21.519531 -35.921875 22.6875 -35.921875 C 25.851562 -35.921875 28.269531 -34.863281 29.9375 -32.75 C 31.613281 -30.632812 32.453125 -27.679688 32.453125 -23.890625 L 32.453125 0 L 23.078125 0 L 23.078125 -22.078125 C 23.078125 -26.222656 21.628906 -28.296875 18.734375 -28.296875 C 17.304688 -28.296875 16.066406 -27.859375 15.015625 -26.984375 C 13.972656 -26.117188 13.453125 -24.90625 13.453125 -23.34375 L 13.453125 0 Z M 4.078125 0 "/></g></g></g><g fill="#8faad9" fill-opacity="1"><g transform="translate(123.542512, 172.525614)"><g><path d="M 7.421875 -76.171875 L 41.25 -76.171875 C 47.363281 -76.171875 51.890625 -74.382812 54.828125 -70.8125 C 57.773438 -67.25 59.25 -62.523438 59.25 -56.640625 C 59.25 -53.429688 58.867188 -50.789062 58.109375 -48.71875 C 57.347656 -46.644531 56.363281 -45.007812 55.15625 -43.8125 C 53.957031 -42.613281 52.59375 -41.738281 51.0625 -41.1875 C 49.539062 -40.644531 47.976562 -40.335938 46.375 -40.265625 L 46.375 -38.515625 C 48.125 -38.515625 49.925781 -38.222656 51.78125 -37.640625 C 53.632812 -37.066406 55.320312 -36.101562 56.84375 -34.75 C 58.375 -33.40625 59.613281 -31.660156 60.5625 -29.515625 C 61.507812 -27.367188 61.984375 -24.769531 61.984375 -21.71875 C 61.984375 -18.726562 61.582031 -15.90625 60.78125 -13.25 C 59.976562 -10.601562 58.8125 -8.296875 57.28125 -6.328125 C 55.757812 -4.367188 53.90625 -2.820312 51.71875 -1.6875 C 49.539062 -0.5625 47.070312 0 44.3125 0 L 7.421875 0 Z M 23.03125 -13.203125 L 39.9375 -13.203125 C 41.6875 -13.203125 43.085938 -13.710938 44.140625 -14.734375 C 45.191406 -15.753906 45.71875 -17.460938 45.71875 -19.859375 L 45.71875 -25.3125 C 45.71875 -27.71875 45.191406 -29.425781 44.140625 -30.4375 C 43.085938 -31.457031 41.6875 -31.96875 39.9375 -31.96875 L 23.03125 -31.96875 Z M 23.03125 -44.84375 L 37.4375 -44.84375 C 39.25 -44.84375 40.664062 -45.351562 41.6875 -46.375 C 42.707031 -47.394531 43.21875 -49.066406 43.21875 -51.390625 L 43.21875 -56.421875 C 43.21875 -58.742188 42.707031 -60.414062 41.6875 -61.4375 C 40.664062 -62.457031 39.25 -62.96875 37.4375 -62.96875 L 23.03125 -62.96875 Z M 23.03125 -44.84375 "/></g></g></g><g fill="#8faad9" fill-opacity="1"><g transform="translate(188.136634, 172.525614)"><g><path d="M 27.71875 1.3125 C 19.71875 1.3125 13.660156 -1.125 9.546875 -6 C 5.441406 -10.875 3.390625 -18.40625 3.390625 -28.59375 C 3.390625 -38.78125 5.441406 -46.328125 9.546875 -51.234375 C 13.660156 -56.140625 19.71875 -58.59375 27.71875 -58.59375 C 35.71875 -58.59375 41.769531 -56.140625 45.875 -51.234375 C 49.988281 -46.328125 52.046875 -38.78125 52.046875 -28.59375 C 52.046875 -18.40625 49.988281 -10.875 45.875 -6 C 41.769531 -1.125 35.71875 1.3125 27.71875 1.3125 Z M 27.71875 -10.796875 C 33.320312 -10.796875 36.125 -14.070312 36.125 -20.625 L 36.125 -36.671875 C 36.125 -43.210938 33.320312 -46.484375 27.71875 -46.484375 C 22.113281 -46.484375 19.3125 -43.210938 19.3125 -36.671875 L 19.3125 -20.625 C 19.3125 -14.070312 22.113281 -10.796875 27.71875 -10.796875 Z M 27.71875 -10.796875 "/></g></g></g><g fill="#8faad9" fill-opacity="1"><g transform="translate(242.474238, 172.525614)"><g><path d="M 54.890625 4.46875 C 54.890625 7.457031 54.453125 10.113281 53.578125 12.4375 C 52.703125 14.769531 51.191406 16.734375 49.046875 18.328125 C 46.898438 19.929688 44.007812 21.132812 40.375 21.9375 C 36.738281 22.738281 32.15625 23.140625 26.625 23.140625 C 21.894531 23.140625 17.96875 22.828125 14.84375 22.203125 C 11.71875 21.585938 9.1875 20.710938 7.25 19.578125 C 5.320312 18.453125 3.957031 17.050781 3.15625 15.375 C 2.363281 13.707031 1.96875 11.820312 1.96875 9.71875 C 1.96875 6.945312 2.800781 4.742188 4.46875 3.109375 C 6.144531 1.472656 8.582031 0.398438 11.78125 -0.109375 L 11.78125 -2.40625 C 9.019531 -2.914062 7.019531 -4.039062 5.78125 -5.78125 C 4.539062 -7.53125 3.921875 -9.640625 3.921875 -12.109375 C 3.921875 -13.421875 4.191406 -14.582031 4.734375 -15.59375 C 5.285156 -16.613281 6.015625 -17.488281 6.921875 -18.21875 C 7.835938 -18.945312 8.875 -19.566406 10.03125 -20.078125 C 11.195312 -20.585938 12.398438 -20.988281 13.640625 -21.28125 L 13.640625 -22.8125 C 10.441406 -24.332031 8.113281 -26.472656 6.65625 -29.234375 C 5.195312 -32.003906 4.46875 -35.351562 4.46875 -39.28125 C 4.46875 -45.320312 6.210938 -50.050781 9.703125 -53.46875 C 13.203125 -56.882812 18.914062 -58.59375 26.84375 -58.59375 C 28.375 -58.59375 29.882812 -58.46875 31.375 -58.21875 C 32.863281 -57.96875 34.265625 -57.625 35.578125 -57.1875 L 35.578125 -59.25 C 35.578125 -62.164062 36.265625 -64.3125 37.640625 -65.6875 C 39.023438 -67.070312 40.992188 -67.765625 43.546875 -67.765625 L 51.71875 -67.765625 L 51.71875 -56.3125 L 40.15625 -56.3125 L 40.15625 -54.5625 C 43.132812 -53.320312 45.40625 -51.390625 46.96875 -48.765625 C 48.539062 -46.148438 49.328125 -42.988281 49.328125 -39.28125 C 49.328125 -33.320312 47.578125 -28.648438 44.078125 -25.265625 C 40.585938 -21.878906 34.84375 -20.1875 26.84375 -20.1875 C 25.019531 -20.1875 23.328125 -20.273438 21.765625 -20.453125 C 20.203125 -20.640625 18.691406 -20.914062 17.234375 -21.28125 C 16.078125 -20.257812 15.5 -18.625 15.5 -16.375 C 15.5 -14.914062 15.953125 -13.820312 16.859375 -13.09375 C 17.765625 -12.363281 19.3125 -12 21.5 -12 L 36.890625 -12 C 43.359375 -12 47.972656 -10.5625 50.734375 -7.6875 C 53.503906 -4.820312 54.890625 -0.769531 54.890625 4.46875 Z M 40.59375 6.4375 C 40.59375 4.6875 39.992188 3.335938 38.796875 2.390625 C 37.597656 1.453125 35.613281 0.984375 32.84375 0.984375 L 15.0625 0.984375 C 14.550781 1.710938 14.164062 2.546875 13.90625 3.484375 C 13.65625 4.429688 13.53125 5.414062 13.53125 6.4375 C 13.53125 8.550781 14.273438 10.148438 15.765625 11.234375 C 17.253906 12.328125 20 12.875 24 12.875 L 30.125 12.875 C 34.125 12.875 36.867188 12.328125 38.359375 11.234375 C 39.847656 10.148438 40.59375 8.550781 40.59375 6.4375 Z M 26.84375 -30.34375 C 29.820312 -30.34375 31.945312 -31.03125 33.21875 -32.40625 C 34.5 -33.789062 35.140625 -35.828125 35.140625 -38.515625 L 35.140625 -40.265625 C 35.140625 -42.960938 34.5 -45 33.21875 -46.375 C 31.945312 -47.757812 29.820312 -48.453125 26.84375 -48.453125 C 23.863281 -48.453125 21.734375 -47.757812 20.453125 -46.375 C 19.179688 -45 18.546875 -42.960938 18.546875 -40.265625 L 18.546875 -38.515625 C 18.546875 -35.828125 19.179688 -33.789062 20.453125 -32.40625 C 21.734375 -31.03125 23.863281 -30.34375 26.84375 -30.34375 Z M 26.84375 -30.34375 "/></g></g></g><g fill="#8faad9" fill-opacity="1"><g transform="translate(295.829838, 172.525614)"><g><path d="M 27.71875 1.3125 C 19.71875 1.3125 13.660156 -1.125 9.546875 -6 C 5.441406 -10.875 3.390625 -18.40625 3.390625 -28.59375 C 3.390625 -38.78125 5.441406 -46.328125 9.546875 -51.234375 C 13.660156 -56.140625 19.71875 -58.59375 27.71875 -58.59375 C 35.71875 -58.59375 41.769531 -56.140625 45.875 -51.234375 C 49.988281 -46.328125 52.046875 -38.78125 52.046875 -28.59375 C 52.046875 -18.40625 49.988281 -10.875 45.875 -6 C 41.769531 -1.125 35.71875 1.3125 27.71875 1.3125 Z M 27.71875 -10.796875 C 33.320312 -10.796875 36.125 -14.070312 36.125 -20.625 L 36.125 -36.671875 C 36.125 -43.210938 33.320312 -46.484375 27.71875 -46.484375 C 22.113281 -46.484375 19.3125 -43.210938 19.3125 -36.671875 L 19.3125 -20.625 C 19.3125 -14.070312 22.113281 -10.796875 27.71875 -10.796875 Z M 27.71875 -10.796875 "/></g></g></g><g fill="#8faad9" fill-opacity="1"><g transform="translate(350.167442, 172.525614)"><g><path d="M 24.328125 0 C 19.097656 0 15.300781 -1.160156 12.9375 -3.484375 C 10.570312 -5.816406 9.390625 -9.53125 9.390625 -14.625 L 9.390625 -45.390625 L 2.1875 -45.390625 L 2.1875 -57.296875 L 5.671875 -57.296875 C 7.710938 -57.296875 9.09375 -57.726562 9.8125 -58.59375 C 10.539062 -59.46875 10.90625 -60.890625 10.90625 -62.859375 L 10.90625 -72.78125 L 24.65625 -72.78125 L 24.65625 -57.296875 L 34.703125 -57.296875 L 34.703125 -45.390625 L 24.65625 -45.390625 L 24.65625 -11.890625 L 33.609375 -11.890625 L 33.609375 0 Z M 24.328125 0 "/></g></g></g><g fill="#8faad9" fill-opacity="1"><g transform="translate(386.392488, 172.525614)"><g><path d="M 44.40625 0 C 38.445312 0 35.210938 -3.3125 34.703125 -9.9375 L 33.28125 -9.9375 C 32.695312 -6.4375 31.128906 -3.6875 28.578125 -1.6875 C 26.035156 0.3125 22.800781 1.3125 18.875 1.3125 C 13.707031 1.3125 9.816406 -0.160156 7.203125 -3.109375 C 4.585938 -6.054688 3.28125 -10.148438 3.28125 -15.390625 C 3.28125 -21.640625 5.1875 -26.179688 9 -29.015625 C 12.820312 -31.859375 18.148438 -33.28125 24.984375 -33.28125 L 33.28125 -33.28125 L 33.28125 -37.75 C 33.28125 -40.738281 32.660156 -42.957031 31.421875 -44.40625 C 30.191406 -45.863281 28.117188 -46.59375 25.203125 -46.59375 C 22.660156 -46.59375 20.535156 -45.957031 18.828125 -44.6875 C 17.117188 -43.414062 15.609375 -41.722656 14.296875 -39.609375 L 5.234375 -47.6875 C 7.566406 -51.101562 10.40625 -53.773438 13.75 -55.703125 C 17.09375 -57.628906 21.382812 -58.59375 26.625 -58.59375 C 34.113281 -58.59375 39.640625 -56.847656 43.203125 -53.359375 C 46.773438 -49.867188 48.5625 -44.664062 48.5625 -37.75 L 48.5625 -11.890625 L 53.25 -11.890625 L 53.25 0 Z M 24.984375 -9.390625 C 27.242188 -9.390625 29.191406 -10.023438 30.828125 -11.296875 C 32.460938 -12.566406 33.28125 -14.546875 33.28125 -17.234375 L 33.28125 -24.328125 L 26.40625 -24.328125 C 21.164062 -24.328125 18.546875 -22.144531 18.546875 -17.78125 L 18.546875 -15.71875 C 18.546875 -13.53125 19.109375 -11.925781 20.234375 -10.90625 C 21.367188 -9.894531 22.953125 -9.390625 24.984375 -9.390625 Z M 28.359375 -63.1875 L 19.421875 -67.4375 L 29.453125 -89.046875 L 42.4375 -82.71875 Z M 28.359375 -63.1875 "/></g></g></g><g fill="#1b3f71" fill-opacity="1"><g transform="translate(459.536161, 140.505346)"><g><path d="M 4.921875 0 L 0.4375 -14.265625 L 2.546875 -14.265625 L 4.734375 -7.078125 L 6.0625 -1.859375 L 6.328125 -1.859375 L 7.65625 -7.078125 L 9.84375 -14.265625 L 11.890625 -14.265625 L 7.40625 0 Z M 4.921875 0 "/></g></g></g><g fill="#1b3f71" fill-opacity="1"><g transform="translate(471.731891, 140.505346)"><g><path d="M 11.125 0 C 9.757812 0 9.078125 -0.679688 9.078125 -2.046875 L 9.078125 -2.328125 L 8.796875 -2.328125 C 8.554688 -1.453125 8.117188 -0.789062 7.484375 -0.34375 C 6.847656 0.101562 6.085938 0.328125 5.203125 0.328125 C 3.816406 0.328125 2.78125 -0.0195312 2.09375 -0.71875 C 1.414062 -1.414062 1.078125 -2.445312 1.078125 -3.8125 C 1.078125 -5.144531 1.515625 -6.195312 2.390625 -6.96875 C 3.265625 -7.738281 4.632812 -8.125 6.5 -8.125 L 9.078125 -8.125 L 9.078125 -9.703125 C 9.078125 -10.753906 8.835938 -11.53125 8.359375 -12.03125 C 7.890625 -12.53125 7.148438 -12.78125 6.140625 -12.78125 C 5.304688 -12.78125 4.632812 -12.597656 4.125 -12.234375 C 3.625 -11.878906 3.191406 -11.359375 2.828125 -10.671875 L 1.578125 -11.84375 C 1.941406 -12.613281 2.53125 -13.257812 3.34375 -13.78125 C 4.15625 -14.3125 5.113281 -14.578125 6.21875 -14.578125 C 7.84375 -14.578125 9.070312 -14.179688 9.90625 -13.390625 C 10.75 -12.609375 11.171875 -11.453125 11.171875 -9.921875 L 11.171875 -1.859375 L 12.609375 -1.859375 L 12.609375 0 Z M 5.71875 -1.5 C 6.195312 -1.5 6.644531 -1.578125 7.0625 -1.734375 C 7.476562 -1.898438 7.832031 -2.117188 8.125 -2.390625 C 8.425781 -2.660156 8.660156 -2.960938 8.828125 -3.296875 C 8.992188 -3.640625 9.078125 -4 9.078125 -4.375 L 9.078125 -6.53125 L 6.4375 -6.53125 C 5.332031 -6.53125 4.523438 -6.34375 4.015625 -5.96875 C 3.515625 -5.601562 3.265625 -5.070312 3.265625 -4.375 L 3.265625 -3.59375 C 3.265625 -2.875 3.484375 -2.34375 3.921875 -2 C 4.367188 -1.664062 4.96875 -1.5 5.71875 -1.5 Z M 5.71875 -1.5 "/></g></g></g><g fill="#1b3f71" fill-opacity="1"><g transform="translate(484.978493, 140.505346)"><g><path d="M 6.796875 0.328125 C 5.035156 0.328125 3.648438 -0.25 2.640625 -1.40625 C 1.640625 -2.570312 1.140625 -4.484375 1.140625 -7.140625 C 1.140625 -9.796875 1.640625 -11.703125 2.640625 -12.859375 C 3.648438 -14.023438 5.035156 -14.609375 6.796875 -14.609375 C 8.148438 -14.609375 9.226562 -14.296875 10.03125 -13.671875 C 10.832031 -13.054688 11.414062 -12.269531 11.78125 -11.3125 L 10.046875 -10.421875 C 9.804688 -11.160156 9.425781 -11.726562 8.90625 -12.125 C 8.382812 -12.519531 7.679688 -12.71875 6.796875 -12.71875 C 5.640625 -12.71875 4.785156 -12.375 4.234375 -11.6875 C 3.679688 -11.007812 3.40625 -9.972656 3.40625 -8.578125 L 3.40625 -5.703125 C 3.40625 -4.296875 3.679688 -3.25 4.234375 -2.5625 C 4.785156 -1.882812 5.640625 -1.546875 6.796875 -1.546875 C 7.722656 -1.546875 8.46875 -1.75 9.03125 -2.15625 C 9.59375 -2.5625 10.039062 -3.179688 10.375 -4.015625 L 11.921875 -2.9375 C 11.492188 -1.9375 10.851562 -1.140625 10 -0.546875 C 9.144531 0.0351562 8.078125 0.328125 6.796875 0.328125 Z M 6.796875 0.328125 "/></g></g></g><g fill="#1b3f71" fill-opacity="1"><g transform="translate(497.423113, 140.505346)"><g><path d="M 9.984375 -2.328125 L 9.703125 -2.328125 C 9.429688 -1.441406 9.003906 -0.773438 8.421875 -0.328125 C 7.835938 0.109375 7.050781 0.328125 6.0625 0.328125 C 4.789062 0.328125 3.789062 -0.101562 3.0625 -0.96875 C 2.332031 -1.832031 1.96875 -3.171875 1.96875 -4.984375 L 1.96875 -14.265625 L 4.0625 -14.265625 L 4.0625 -5.109375 C 4.0625 -3.972656 4.296875 -3.097656 4.765625 -2.484375 C 5.234375 -1.878906 5.957031 -1.578125 6.9375 -1.578125 C 7.789062 -1.578125 8.507812 -1.832031 9.09375 -2.34375 C 9.6875 -2.863281 9.984375 -3.59375 9.984375 -4.53125 L 9.984375 -14.265625 L 12.078125 -14.265625 L 12.078125 0 L 9.984375 0 Z M 9.984375 -2.328125 "/></g></g></g><g fill="#1b3f71" fill-opacity="1"><g transform="translate(511.499365, 140.505346)"><g><path d="M 2.109375 0 L 2.109375 -14.265625 L 4.203125 -14.265625 L 4.203125 -11.953125 L 4.484375 -11.953125 C 4.753906 -12.835938 5.179688 -13.5 5.765625 -13.9375 C 6.347656 -14.382812 7.132812 -14.609375 8.125 -14.609375 C 9.40625 -14.609375 10.40625 -14.171875 11.125 -13.296875 C 11.851562 -12.429688 12.21875 -11.097656 12.21875 -9.296875 L 12.21875 0 L 10.125 0 L 10.125 -9.15625 C 10.125 -10.300781 9.890625 -11.175781 9.421875 -11.78125 C 8.953125 -12.382812 8.226562 -12.6875 7.25 -12.6875 C 6.394531 -12.6875 5.671875 -12.425781 5.078125 -11.90625 C 4.492188 -11.394531 4.203125 -10.671875 4.203125 -9.734375 L 4.203125 0 Z M 2.109375 0 "/></g></g></g><g fill="#1b3f71" fill-opacity="1"><g transform="translate(525.575621, 140.505346)"><g><path d="M 11.125 0 C 9.757812 0 9.078125 -0.679688 9.078125 -2.046875 L 9.078125 -2.328125 L 8.796875 -2.328125 C 8.554688 -1.453125 8.117188 -0.789062 7.484375 -0.34375 C 6.847656 0.101562 6.085938 0.328125 5.203125 0.328125 C 3.816406 0.328125 2.78125 -0.0195312 2.09375 -0.71875 C 1.414062 -1.414062 1.078125 -2.445312 1.078125 -3.8125 C 1.078125 -5.144531 1.515625 -6.195312 2.390625 -6.96875 C 3.265625 -7.738281 4.632812 -8.125 6.5 -8.125 L 9.078125 -8.125 L 9.078125 -9.703125 C 9.078125 -10.753906 8.835938 -11.53125 8.359375 -12.03125 C 7.890625 -12.53125 7.148438 -12.78125 6.140625 -12.78125 C 5.304688 -12.78125 4.632812 -12.597656 4.125 -12.234375 C 3.625 -11.878906 3.191406 -11.359375 2.828125 -10.671875 L 1.578125 -11.84375 C 1.941406 -12.613281 2.53125 -13.257812 3.34375 -13.78125 C 4.15625 -14.3125 5.113281 -14.578125 6.21875 -14.578125 C 7.84375 -14.578125 9.070312 -14.179688 9.90625 -13.390625 C 10.75 -12.609375 11.171875 -11.453125 11.171875 -9.921875 L 11.171875 -1.859375 L 12.609375 -1.859375 L 12.609375 0 Z M 5.71875 -1.5 C 6.195312 -1.5 6.644531 -1.578125 7.0625 -1.734375 C 7.476562 -1.898438 7.832031 -2.117188 8.125 -2.390625 C 8.425781 -2.660156 8.660156 -2.960938 8.828125 -3.296875 C 8.992188 -3.640625 9.078125 -4 9.078125 -4.375 L 9.078125 -6.53125 L 6.4375 -6.53125 C 5.332031 -6.53125 4.523438 -6.34375 4.015625 -5.96875 C 3.515625 -5.601562 3.265625 -5.070312 3.265625 -4.375 L 3.265625 -3.59375 C 3.265625 -2.875 3.484375 -2.34375 3.921875 -2 C 4.367188 -1.664062 4.96875 -1.5 5.71875 -1.5 Z M 5.71875 -1.5 "/></g></g></g><g fill="#1b3f71" fill-opacity="1"><g transform="translate(538.822226, 140.505346)"><g><path d="M 6.0625 0.328125 C 4.875 0.328125 3.859375 0.0859375 3.015625 -0.390625 C 2.179688 -0.867188 1.472656 -1.53125 0.890625 -2.375 L 2.34375 -3.59375 C 2.84375 -2.894531 3.382812 -2.359375 3.96875 -1.984375 C 4.550781 -1.617188 5.25 -1.4375 6.0625 -1.4375 C 6.882812 -1.4375 7.539062 -1.644531 8.03125 -2.0625 C 8.519531 -2.476562 8.765625 -3.070312 8.765625 -3.84375 C 8.765625 -4.46875 8.609375 -4.972656 8.296875 -5.359375 C 7.984375 -5.753906 7.398438 -6.023438 6.546875 -6.171875 L 5.46875 -6.359375 C 4.09375 -6.617188 3.066406 -7.050781 2.390625 -7.65625 C 1.722656 -8.269531 1.390625 -9.191406 1.390625 -10.421875 C 1.390625 -11.140625 1.5 -11.757812 1.71875 -12.28125 C 1.9375 -12.8125 2.25 -13.25 2.65625 -13.59375 C 3.0625 -13.9375 3.546875 -14.1875 4.109375 -14.34375 C 4.671875 -14.5 5.285156 -14.578125 5.953125 -14.578125 C 7.015625 -14.578125 7.910156 -14.382812 8.640625 -14 C 9.367188 -13.625 10 -13.078125 10.53125 -12.359375 L 9.1875 -11.125 C 8.875 -11.5625 8.457031 -11.953125 7.9375 -12.296875 C 7.414062 -12.640625 6.753906 -12.8125 5.953125 -12.8125 C 4.265625 -12.8125 3.421875 -12.046875 3.421875 -10.515625 C 3.421875 -9.804688 3.601562 -9.289062 3.96875 -8.96875 C 4.332031 -8.644531 4.914062 -8.410156 5.71875 -8.265625 L 6.796875 -8.078125 C 8.253906 -7.816406 9.285156 -7.363281 9.890625 -6.71875 C 10.503906 -6.070312 10.8125 -5.195312 10.8125 -4.09375 C 10.8125 -2.707031 10.410156 -1.625 9.609375 -0.84375 C 8.804688 -0.0625 7.625 0.328125 6.0625 0.328125 Z M 6.0625 0.328125 "/></g></g></g><g fill="#1b3f71" fill-opacity="1"><g transform="translate(459.536161, 178.640135)"><g><path d="M 7.25 0.328125 C 6.0625 0.328125 5.082031 0.164062 4.3125 -0.15625 C 3.539062 -0.488281 2.925781 -0.945312 2.46875 -1.53125 C 2.019531 -2.113281 1.703125 -2.789062 1.515625 -3.5625 C 1.335938 -4.34375 1.25 -5.175781 1.25 -6.0625 C 1.25 -6.90625 1.3125 -7.753906 1.4375 -8.609375 C 1.5625 -9.472656 1.707031 -10.300781 1.875 -11.09375 C 2.15625 -12.394531 2.535156 -13.570312 3.015625 -14.625 C 3.492188 -15.675781 4.09375 -16.578125 4.8125 -17.328125 C 5.53125 -18.078125 6.367188 -18.648438 7.328125 -19.046875 C 8.285156 -19.441406 9.390625 -19.640625 10.640625 -19.640625 C 11.515625 -19.640625 12.28125 -19.519531 12.9375 -19.28125 C 13.601562 -19.039062 14.171875 -18.710938 14.640625 -18.296875 C 15.109375 -17.878906 15.488281 -17.382812 15.78125 -16.8125 C 16.082031 -16.238281 16.289062 -15.625 16.40625 -14.96875 L 13 -13.578125 C 12.945312 -14.515625 12.707031 -15.203125 12.28125 -15.640625 C 11.851562 -16.078125 11.21875 -16.296875 10.375 -16.296875 C 9.75 -16.296875 9.195312 -16.210938 8.71875 -16.046875 C 8.25 -15.878906 7.84375 -15.597656 7.5 -15.203125 C 7.164062 -14.816406 6.875 -14.289062 6.625 -13.625 C 6.375 -12.96875 6.148438 -12.140625 5.953125 -11.140625 L 5.359375 -8.234375 C 5.273438 -7.816406 5.207031 -7.429688 5.15625 -7.078125 C 5.113281 -6.722656 5.09375 -6.425781 5.09375 -6.1875 C 5.09375 -5.082031 5.300781 -4.273438 5.71875 -3.765625 C 6.144531 -3.265625 6.820312 -3.015625 7.75 -3.015625 C 8.238281 -3.015625 8.679688 -3.0625 9.078125 -3.15625 C 9.484375 -3.257812 9.835938 -3.425781 10.140625 -3.65625 C 10.441406 -3.894531 10.710938 -4.203125 10.953125 -4.578125 C 11.191406 -4.953125 11.410156 -5.425781 11.609375 -6 L 14.84375 -4.5625 C 14.144531 -2.957031 13.171875 -1.738281 11.921875 -0.90625 C 10.671875 -0.0820312 9.113281 0.328125 7.25 0.328125 Z M 7.25 0.328125 "/></g></g></g><g fill="#1b3f71" fill-opacity="1"><g transform="translate(475.078116, 178.640135)"><g><path d="M 7.25 0.328125 C 6.0625 0.328125 5.082031 0.164062 4.3125 -0.15625 C 3.539062 -0.488281 2.925781 -0.945312 2.46875 -1.53125 C 2.019531 -2.113281 1.703125 -2.789062 1.515625 -3.5625 C 1.335938 -4.34375 1.25 -5.175781 1.25 -6.0625 C 1.25 -6.90625 1.3125 -7.753906 1.4375 -8.609375 C 1.5625 -9.472656 1.707031 -10.300781 1.875 -11.09375 C 2.15625 -12.394531 2.539062 -13.570312 3.03125 -14.625 C 3.519531 -15.675781 4.128906 -16.578125 4.859375 -17.328125 C 5.597656 -18.078125 6.460938 -18.648438 7.453125 -19.046875 C 8.441406 -19.441406 9.570312 -19.640625 10.84375 -19.640625 C 12.019531 -19.640625 12.988281 -19.472656 13.75 -19.140625 C 14.519531 -18.804688 15.132812 -18.347656 15.59375 -17.765625 C 16.0625 -17.179688 16.382812 -16.503906 16.5625 -15.734375 C 16.75 -14.960938 16.84375 -14.132812 16.84375 -13.25 C 16.84375 -12.394531 16.773438 -11.539062 16.640625 -10.6875 C 16.515625 -9.832031 16.367188 -9.007812 16.203125 -8.21875 C 15.929688 -6.90625 15.550781 -5.722656 15.0625 -4.671875 C 14.570312 -3.617188 13.957031 -2.71875 13.21875 -1.96875 C 12.476562 -1.226562 11.613281 -0.660156 10.625 -0.265625 C 9.644531 0.128906 8.519531 0.328125 7.25 0.328125 Z M 7.75 -3.015625 C 8.375 -3.015625 8.914062 -3.097656 9.375 -3.265625 C 9.832031 -3.429688 10.234375 -3.707031 10.578125 -4.09375 C 10.921875 -4.476562 11.21875 -5.003906 11.46875 -5.671875 C 11.71875 -6.335938 11.941406 -7.164062 12.140625 -8.15625 L 12.71875 -11.0625 C 12.8125 -11.488281 12.878906 -11.875 12.921875 -12.21875 C 12.972656 -12.570312 13 -12.867188 13 -13.109375 C 13 -14.210938 12.785156 -15.019531 12.359375 -15.53125 C 11.929688 -16.039062 11.257812 -16.296875 10.34375 -16.296875 C 9.71875 -16.296875 9.171875 -16.210938 8.703125 -16.046875 C 8.242188 -15.878906 7.84375 -15.597656 7.5 -15.203125 C 7.164062 -14.816406 6.875 -14.289062 6.625 -13.625 C 6.375 -12.96875 6.148438 -12.140625 5.953125 -11.140625 L 5.359375 -8.234375 C 5.273438 -7.816406 5.207031 -7.429688 5.15625 -7.078125 C 5.113281 -6.722656 5.09375 -6.425781 5.09375 -6.1875 C 5.09375 -5.082031 5.300781 -4.273438 5.71875 -3.765625 C 6.144531 -3.265625 6.820312 -3.015625 7.75 -3.015625 Z M 7.75 -3.015625 "/></g></g></g><g fill="#1b3f71" fill-opacity="1"><g transform="translate(492.085774, 178.640135)"><g><path d="M 4.3125 0 L 2.65625 -19.296875 L 6.46875 -19.296875 L 7.140625 -7.71875 L 6.96875 -3.453125 L 7.359375 -3.453125 L 8.828125 -7.71875 L 13.890625 -19.296875 L 17.921875 -19.296875 L 8.625 0 Z M 4.3125 0 "/></g></g></g><g fill="#1b3f71" fill-opacity="1"><g transform="translate(507.766, 178.640135)"><g><path d="M -0.171875 0 L 0.4375 -3.046875 L 2.59375 -3.046875 L 5.25 -16.265625 L 3.09375 -16.265625 L 3.703125 -19.296875 L 11.8125 -19.296875 L 11.203125 -16.265625 L 9.046875 -16.265625 L 6.390625 -3.046875 L 8.546875 -3.046875 L 7.9375 0 Z M -0.171875 0 "/></g></g></g><g fill="#1b3f71" fill-opacity="1"><g transform="translate(518.357745, 178.640135)"><g><path d="M 4.234375 -19.296875 L 10.59375 -19.296875 C 11.769531 -19.296875 12.738281 -19.128906 13.5 -18.796875 C 14.269531 -18.472656 14.882812 -18.019531 15.34375 -17.4375 C 15.8125 -16.851562 16.132812 -16.175781 16.3125 -15.40625 C 16.5 -14.632812 16.59375 -13.804688 16.59375 -12.921875 C 16.59375 -12.117188 16.53125 -11.316406 16.40625 -10.515625 C 16.289062 -9.710938 16.160156 -8.945312 16.015625 -8.21875 C 15.734375 -6.957031 15.359375 -5.820312 14.890625 -4.8125 C 14.421875 -3.800781 13.820312 -2.9375 13.09375 -2.21875 C 12.363281 -1.507812 11.492188 -0.960938 10.484375 -0.578125 C 9.484375 -0.191406 8.332031 0 7.03125 0 L 0.359375 0 Z M 7.515625 -3.3125 C 8.179688 -3.3125 8.75 -3.390625 9.21875 -3.546875 C 9.6875 -3.703125 10.09375 -3.960938 10.4375 -4.328125 C 10.78125 -4.703125 11.066406 -5.195312 11.296875 -5.8125 C 11.523438 -6.4375 11.742188 -7.21875 11.953125 -8.15625 L 12.46875 -10.734375 C 12.5625 -11.148438 12.628906 -11.535156 12.671875 -11.890625 C 12.722656 -12.242188 12.75 -12.539062 12.75 -12.78125 C 12.75 -13.90625 12.550781 -14.71875 12.15625 -15.21875 C 11.757812 -15.726562 11.070312 -15.984375 10.09375 -15.984375 L 7.359375 -15.984375 L 4.8125 -3.3125 Z M 7.515625 -3.3125 "/></g></g></g><g fill="#1b3f71" fill-opacity="1"><g transform="translate(535.144163, 178.640135)"><g><path d="M 1.109375 -6.671875 L 1.828125 -10.171875 L 9.296875 -10.171875 L 8.578125 -6.671875 Z M 1.109375 -6.671875 "/></g></g></g><g fill="#1b3f71" fill-opacity="1"><g transform="translate(544.961583, 178.640135)"><g><path d="M 1.015625 0 L 1.625 -3.09375 L 5.53125 -3.09375 L 8.046875 -15.6875 L 3.984375 -13.28125 L 2.796875 -15.84375 L 8.546875 -19.296875 L 12.53125 -19.296875 L 9.265625 -3.09375 L 12.859375 -3.09375 L 12.25 0 Z M 1.015625 0 "/></g></g></g><g fill="#1b3f71" fill-opacity="1"><g transform="translate(559.784518, 178.640135)"><g><path d="M 5.859375 -6.9375 C 4.535156 -6.9375 3.546875 -7.351562 2.890625 -8.1875 C 2.234375 -9.019531 1.90625 -10.207031 1.90625 -11.75 C 1.90625 -12.195312 1.925781 -12.578125 1.96875 -12.890625 C 2.019531 -13.203125 2.070312 -13.492188 2.125 -13.765625 C 2.5 -15.554688 3.28125 -16.984375 4.46875 -18.046875 C 5.65625 -19.109375 7.28125 -19.640625 9.34375 -19.640625 C 11.207031 -19.640625 12.625 -19.1875 13.59375 -18.28125 C 14.5625 -17.375 15.046875 -16.054688 15.046875 -14.328125 C 15.046875 -13.921875 15.023438 -13.539062 14.984375 -13.1875 C 14.953125 -12.84375 14.90625 -12.519531 14.84375 -12.21875 C 14.53125 -10.5625 14.070312 -9.085938 13.46875 -7.796875 C 12.863281 -6.503906 12.179688 -5.367188 11.421875 -4.390625 C 10.660156 -3.421875 9.847656 -2.578125 8.984375 -1.859375 C 8.117188 -1.140625 7.265625 -0.519531 6.421875 0 L 1 0 C 2.15625 -0.769531 3.226562 -1.523438 4.21875 -2.265625 C 5.207031 -3.003906 6.085938 -3.757812 6.859375 -4.53125 C 7.628906 -5.3125 8.296875 -6.125 8.859375 -6.96875 C 9.421875 -7.8125 9.878906 -8.734375 10.234375 -9.734375 L 9.84375 -9.734375 C 9.53125 -8.941406 9.0625 -8.273438 8.4375 -7.734375 C 7.8125 -7.203125 6.953125 -6.9375 5.859375 -6.9375 Z M 8 -10.046875 C 8.863281 -10.046875 9.507812 -10.28125 9.9375 -10.75 C 10.375 -11.21875 10.691406 -11.976562 10.890625 -13.03125 C 10.953125 -13.320312 10.992188 -13.570312 11.015625 -13.78125 C 11.046875 -14 11.0625 -14.21875 11.0625 -14.4375 C 11.0625 -15.132812 10.898438 -15.65625 10.578125 -16 C 10.253906 -16.351562 9.707031 -16.53125 8.9375 -16.53125 C 8.070312 -16.53125 7.421875 -16.296875 6.984375 -15.828125 C 6.546875 -15.359375 6.226562 -14.597656 6.03125 -13.546875 C 5.976562 -13.253906 5.9375 -13 5.90625 -12.78125 C 5.875 -12.570312 5.859375 -12.359375 5.859375 -12.140625 C 5.859375 -11.441406 6.019531 -10.914062 6.34375 -10.5625 C 6.664062 -10.21875 7.21875 -10.046875 8 -10.046875 Z M 8 -10.046875 "/></g></g></g></svg>