<?xml version="1.0" encoding="utf-8"?>
<svg xmlns="http://www.w3.org/2000/svg" height="1587pt" preserveAspectRatio="xMidYMid meet" viewBox="0 0 1920 1587" width="1920pt" xmlns:bx="https://boxy-svg.com"><defs><bx:export><bx:file format="svg" units="pt"/></bx:export></defs><path d="M 1536.37 169.706 C 1521.28 173.171 1501.36 185.532 1475.72 207.578 C 1447.62 231.75 1408.73 261.041 1358.24 296.157 C 1322.67 320.879 1285.69 344.815 1267.75 354.814 C 1227.66 377.097 1171.45 394.576 1041.91 424.89 C 943.634 447.881 901.88 460.873 861.238 480.95 C 834.805 493.942 816.389 506.934 797.1 526.145 C 765.983 557.088 748.123 591.733 740.343 636.14 C 736.93 655.43 735.66 672.201 735.66 698.106 C 735.66 723.616 736.375 731.332 740.185 746.292 C 744.392 762.669 746.773 768.81 768.602 819.595 C 777.81 840.93 785.114 858.88 784.876 859.52 C 784.003 861.56 765.427 888.8 761.617 893.45 C 750.028 907.7 731.85 925.26 712.085 941.24 C 693.113 956.67 670.729 976.12 635.087 1008.25 C 611.114 1029.9 605.717 1034.78 562.058 1075.33 C 526.977 1107.85 498.639 1133.76 476.969 1152.96 C 440.216 1185.56 434.739 1189.03 414.418 1192.73 C 404.257 1194.61 362.662 1194.54 324.323 1192.57 C 290.427 1190.91 270.424 1191.23 257.723 1193.75 C 232.878 1198.63 217.875 1209.5 207.397 1230.36 C 195.252 1254.54 195.808 1276.5 208.984 1296.66 C 216.525 1308.23 233.354 1323.12 250.976 1333.75 C 296.381 1361.23 407.035 1400.91 479.747 1415.79 L 491.495 1418.15 L 547.135 1418.15 C 593.889 1418.15 604.05 1417.91 610.797 1416.89 C 651.042 1410.67 684.699 1394.37 740.264 1353.98 C 785.669 1321.06 809.483 1305.79 853.141 1281.7 L 879.495 1267.13 L 949.19 1266.58 C 1075.17 1265.72 1079.22 1265.24 1112.95 1248.55 C 1124.31 1242.89 1134.86 1236.58 1141.14 1231.62 C 1152.8 1222.41 1164.63 1207.77 1170.42 1195.24 C 1179.55 1175.64 1183.45 1158 1189.23 1110.29 C 1190.99 1095.33 1192.89 1080.6 1193.45 1077.61 L 1194.32 1072.1 L 1197.89 1072.34 C 1199.88 1072.42 1210.04 1073.91 1220.51 1075.64 C 1244.17 1079.51 1251.47 1080.37 1262.66 1080.37 C 1307.83 1080.37 1353.24 1062.97 1378.72 1035.88 C 1386.1 1028.01 1390.71 1021.08 1395.7 1010.14 C 1404.28 991.32 1409.84 986.04 1427.7 979.75 C 1443.57 974.16 1452.7 968.57 1463.49 957.93 C 1471.51 949.98 1475.64 944.24 1479.45 935.5 C 1485.96 920.46 1484.37 907.47 1474.52 896.05 C 1472.54 893.69 1470.64 890.93 1470.4 889.91 C 1469.84 887.7 1469.05 888.49 1485.56 874.95 C 1520.25 846.52 1534.86 826.21 1536.68 803.848 C 1537 799.754 1537.08 793.298 1536.76 789.361 C 1535.81 774.795 1538.19 771.96 1558.27 764.165 C 1592.64 750.78 1623.76 729.994 1650.75 702.279 C 1672.02 680.468 1680.91 663.225 1681.86 641.73 C 1682.58 626.692 1679.33 616.219 1670.52 605.354 C 1661.15 593.937 1661.39 592.362 1674.64 575.985 C 1690.99 555.986 1699.88 539.373 1702.35 524.413 C 1706.79 497.17 1699.17 462.999 1684.96 446.621 C 1680.04 440.874 1678.14 437.488 1678.14 434.181 C 1678.22 430.401 1681.47 423.945 1691.15 408.356 C 1712.51 373.947 1721.24 351.823 1721.32 331.587 C 1721.4 317.257 1717.58 307.731 1708.22 298.519 C 1691.47 281.984 1672.26 282.929 1644.01 301.511 C 1639.4 304.582 1631.22 310.644 1625.74 315.131 C 1593.28 341.666 1566.21 359.933 1559.23 359.933 C 1555.81 359.933 1552.8 357.57 1546.84 350.248 C 1540.65 342.532 1533.27 331.824 1532.39 329.068 C 1531.76 326.942 1538.35 313.558 1552.4 288.52 C 1574.78 248.679 1581.61 228.207 1578.91 208.996 C 1576.53 191.673 1567.72 176.477 1557.08 171.359 C 1551.85 168.761 1543.43 168.131 1536.37 169.706 Z M 1539.22 214.665 C 1543.11 219.31 1530.09 252.221 1513.42 279.622 C 1492.79 313.636 1464.13 343.792 1419.6 378.593 C 1359.91 425.126 1299.74 456.385 1219.32 482.682 C 1188.04 492.918 1168.84 498.115 1092.32 517.405 C 1020.95 535.357 987.847 545.042 961.732 555.671 C 948.873 560.946 912.517 578.662 898.863 586.379 C 858.301 609.133 839.488 629.683 828.375 663.461 C 821.628 683.618 818.056 705.743 818.135 726.844 C 818.135 747.237 820.754 759.835 828.295 776.054 C 830.995 781.881 834.328 787.077 848.617 807.549 C 851.554 811.879 855.205 817.627 856.634 820.383 C 859.015 825.107 859.095 825.344 857.745 826.839 C 855.126 829.674 851.237 830.383 837.821 830.383 L 825.041 830.383 L 821.152 828.02 C 815.278 824.398 812.023 819.517 801.783 798.888 C 777.414 749.914 774.795 737.946 775.826 682.752 C 776.699 639.289 780.113 623.148 794.957 592.598 C 812.102 557.324 833.852 536.774 874.415 517.326 C 915.216 497.878 968.558 482.052 1078.82 456.778 C 1153.83 439.614 1211.31 424.339 1232.82 415.836 C 1259.49 405.285 1307.44 377.648 1362.6 340.957 C 1418.96 303.558 1461.19 272.063 1497.94 239.939 C 1522.79 218.286 1535.65 210.413 1539.22 214.665 Z M 1681.15 330.957 C 1685.84 335.603 1672.5 365.129 1652.26 394.812 C 1641.14 411.032 1630.98 423.316 1617.09 437.015 C 1532.39 521.106 1403.8 576.615 1221.31 607.952 C 1189.64 613.385 1168.44 617.636 1143.52 623.385 C 1079.77 638.187 1023.58 658.501 995.867 676.846 C 970.067 693.854 949.11 727.631 939.982 767 C 935.854 784.952 934.743 794.243 934.822 811.879 C 934.822 827.705 934.981 829.359 936.966 836.52 C 940.855 850.93 949.031 865.18 960.938 878.41 C 978.56 898.1 981.973 906.76 981.973 931.79 C 981.973 954.16 979.751 959.11 969.987 959.11 C 962.605 959.11 951.095 956.2 948.396 953.76 C 939.902 945.89 914.105 879.91 899.896 829.91 C 889.815 794.321 888.544 784.636 891.084 762.276 C 894.577 732.041 901.722 700.546 909.818 679.996 C 932.759 621.494 979.037 593.858 1097.48 567.875 C 1130.65 560.631 1163.83 554.412 1222.1 544.569 C 1253.46 539.294 1284.5 533.625 1299.9 530.318 C 1373.4 514.729 1413.8 498.193 1492 451.661 C 1556.21 413.394 1603.2 382.451 1642.02 352.846 C 1655.75 342.374 1663.53 337.178 1671.39 333.005 C 1677.27 329.855 1679.56 329.383 1681.15 330.957 Z M 1512.95 371.507 C 1518.11 375.286 1519.3 382.844 1515.49 388.042 C 1509.38 396.388 1484.77 411.426 1423.72 443.944 C 1391.33 461.266 1368.24 472.368 1356.81 476.069 C 1352.52 477.407 1347.12 477.171 1347.12 475.675 C 1347.12 474.336 1356.33 468.038 1378.48 454.416 C 1410.07 434.889 1436.43 416.387 1458.81 397.883 C 1480.16 380.247 1493.5 371.743 1502.71 369.932 C 1506.12 369.223 1510.81 370.011 1512.95 371.507 Z M 1655.27 475.282 C 1661.31 483.155 1665.43 496.147 1665.43 507.17 C 1665.43 527.405 1652.42 546.301 1622.97 568.977 C 1591.93 592.913 1554.46 612.834 1513.11 627.4 C 1484.53 637.399 1445.4 647.478 1399.11 656.69 C 1349.1 666.611 1308.23 672.831 1295.37 672.358 L 1288.78 672.122 L 1288.54 667.556 C 1288.22 662.281 1290.21 651.887 1292.51 646.612 C 1294.57 641.809 1298.14 638.187 1303.47 635.51 C 1308.79 632.833 1312.75 631.731 1331.8 627.321 C 1390.71 613.7 1484.85 577.953 1525.73 553.624 C 1545.41 541.892 1571.13 524.492 1601.93 502.051 C 1621.54 487.722 1631.86 480.635 1640.82 475.124 C 1649.48 469.848 1651.15 469.848 1655.27 475.282 Z M 1632.33 624.802 C 1638.53 627.321 1642.89 635.589 1642.17 643.305 C 1641.38 652.123 1636.46 660.154 1624.15 672.831 C 1595.9 701.885 1567.88 719.285 1532.07 730.151 C 1500.01 739.835 1445.08 749.599 1380.06 757.237 C 1359.43 759.677 1330.53 760.622 1324.98 759.126 C 1320.37 757.945 1317.36 754.796 1315.84 749.599 C 1313.55 741.962 1311.25 727.395 1311.09 719.758 L 1311.01 712.278 L 1318.55 710.939 C 1322.67 710.231 1338.07 707.79 1352.68 705.586 C 1401.18 698.263 1418.88 695.035 1448.73 687.791 C 1471.27 682.358 1483.42 679.051 1501.92 673.303 C 1535.33 662.91 1555.49 654.879 1587.64 639.211 C 1617.8 624.565 1625.66 621.968 1632.33 624.802 Z M 1254.25 643.856 C 1254.25 644.092 1252.11 648.737 1249.57 654.092 C 1240.52 672.752 1231.07 686.61 1225.83 688.814 C 1214 693.696 1184.32 698.106 1116.92 704.798 C 1095.33 706.924 1068.74 709.601 1057.79 710.703 C 1035.88 712.986 1024.92 713.065 1022.7 710.939 C 1021.51 709.759 1021.59 709.444 1023.73 707.396 C 1040.32 690.94 1144.07 660.154 1221.7 648.501 C 1229.32 647.32 1239.56 645.746 1244.33 644.958 C 1249.17 644.171 1253.3 643.541 1253.69 643.462 C 1254.01 643.462 1254.25 643.62 1254.25 643.856 Z M 874.018 662.123 C 870.764 674.957 863.223 692.987 861.238 692.987 C 860.206 692.987 860.365 691.098 862.111 684.326 C 865.207 672.28 870.764 658.501 873.939 654.879 C 875.923 652.674 875.923 654.8 874.018 662.123 Z M 1261.47 721.254 C 1264.41 724.246 1274.1 743.694 1274.65 747.867 C 1275.29 752.827 1274.42 754.953 1269.49 760.071 C 1262.27 767.629 1246.87 776.921 1236.87 779.912 C 1230.59 781.724 1211.86 784.007 1187.17 785.897 C 1152.01 788.494 1117 790.07 1035.95 792.589 C 1014.76 793.219 992.694 793.928 986.895 794.243 L 976.259 794.715 L 976.576 781.015 C 976.814 768.81 976.972 767 978.639 763.456 C 982.688 754.796 989.038 751.331 1005.4 748.89 C 1008.49 748.418 1026.03 747.709 1044.37 747.316 C 1098.11 746.135 1139.14 743.379 1180.82 738.182 C 1222.26 733.064 1237.18 729.679 1248.7 722.907 C 1252.42 720.781 1256.23 718.971 1257.27 718.971 C 1258.3 718.971 1260.21 719.994 1261.47 721.254 Z M 1487.55 787.471 C 1489.05 787.865 1491.11 788.968 1492.15 789.991 C 1493.74 791.487 1493.98 792.431 1493.98 797.392 C 1493.98 805.03 1491.76 811.8 1486.75 819.438 C 1481.91 826.839 1468.34 840.46 1459.29 847.15 C 1444.68 857.78 1435.87 859.83 1397.92 861.48 C 1336.65 864.08 1313.86 863.14 1309.18 858.02 C 1308.31 857.07 1305.61 849.44 1303.07 841.01 C 1294.18 811.092 1293.62 808.179 1296.95 806.447 C 1297.67 806.053 1303.47 805.345 1309.82 804.872 C 1325.77 803.612 1350.06 800.935 1399.11 794.872 C 1465.56 786.684 1480.48 785.424 1487.55 787.471 Z M 1255.04 824.083 C 1262.82 831.56 1265.53 844.87 1261.16 853.69 C 1255.44 865.34 1238.77 874.48 1217.58 877.55 C 1191.86 881.25 1134.47 883.14 1066.28 882.35 L 1016.03 881.8 L 1008.65 874.24 C 987.53 852.43 980.862 844.4 979.91 839.59 C 978.878 834.32 981.1 834.08 1045.48 831.17 C 1050.48 830.934 1073.19 830.225 1095.88 829.595 C 1184.79 827.075 1233.22 824.477 1241.71 821.722 C 1247.26 819.91 1251.55 820.698 1255.04 824.083 Z M 863.778 871.32 C 871.557 874.08 874.415 878.33 883.068 900.14 C 894.101 928.09 895.133 936.52 888.148 941.4 C 887.115 942.11 882.591 944.86 877.987 947.54 C 867.509 953.68 851.712 964.87 832.741 979.51 C 824.644 985.81 811.467 996.04 803.371 1002.26 C 795.353 1008.57 787.416 1014.55 785.749 1015.65 L 782.732 1017.62 L 779.875 1015.41 C 778.287 1014.23 772.81 1009.67 767.729 1005.42 C 762.649 1001.08 754.949 994.94 750.584 991.71 C 737.248 981.79 737.486 982.03 737.486 979.9 C 737.486 976.2 740.026 973.05 755.267 957.62 C 772.73 939.75 784.003 926.99 803.53 902.74 C 821.946 879.99 828.058 874.24 837.186 871.4 C 842.584 869.83 859.174 869.75 863.778 871.32 Z M 1404.28 903.13 C 1427.06 904.63 1434.52 905.5 1438.33 907.39 C 1449.44 912.82 1446.66 924.24 1432.06 933.29 C 1422.93 939.04 1411.26 942.19 1391.98 944.31 C 1377.37 945.89 1328.47 945.65 1309.1 943.84 C 1274.18 940.69 1250.68 935.5 1244.17 929.51 C 1240.92 926.44 1240.76 923.92 1243.54 918.41 C 1248.3 909.04 1260.84 904.87 1292.35 902.11 C 1299.5 901.48 1391.5 902.35 1404.28 903.13 Z M 1180.82 923.61 C 1192.33 925.42 1196.93 927.94 1200.83 934.55 C 1204 939.83 1203.76 946.36 1200.28 954.71 C 1195.27 966.52 1187.01 973.84 1174.79 977.31 C 1168.84 978.96 1166.54 979.2 1153.04 979.2 C 1134.39 979.2 1122.87 977.7 1085.57 970.46 C 1050.96 963.77 1031.99 957.85 1025.4 951.64 C 1021.43 947.94 1020.55 945.89 1020.63 940.69 C 1020.71 928.57 1025.56 926.13 1052.63 924.47 C 1088.18 922.27 1168.68 921.8 1180.82 923.61 Z M 1264.25 979.12 C 1284.18 982.82 1297.35 984.08 1335.22 985.73 C 1356.33 986.75 1359.91 988.64 1357.44 997.69 C 1356.73 1000.22 1354.98 1002.58 1350.06 1007.54 C 1328.79 1028.72 1291.64 1041.48 1255.44 1039.98 C 1238.37 1039.27 1225.44 1036.51 1202.65 1028.72 C 1189.48 1024.23 1189.95 1024.47 1189.95 1022.89 C 1189.95 1020.06 1205.43 1004.08 1222.81 989.11 C 1228.69 984.08 1235.04 979.82 1238.93 978.41 C 1243.54 976.75 1252.98 976.99 1264.25 979.12 Z M 1017.54 998.01 C 1050.32 1002.35 1074.7 1009.04 1097.71 1019.82 C 1113.66 1027.22 1132.56 1041.63 1138.99 1051.24 C 1144.62 1059.58 1145.74 1065.25 1147.16 1092.58 C 1149 1128.17 1146.61 1151.94 1139.54 1169.27 C 1132.25 1186.98 1117.16 1201.71 1093.51 1213.91 C 1073.9 1224.14 1061.12 1226.19 1009.84 1227.61 C 966.891 1228.79 922.836 1227.21 906.564 1224.06 C 888.465 1220.44 886.957 1218.4 882.75 1191.39 C 881.321 1182.65 879.178 1171.23 877.907 1166.04 C 871.716 1140.92 859.095 1111.08 841.393 1079.82 C 834.328 1067.38 833.535 1063.44 837.186 1058.17 C 838.456 1056.36 843.377 1051.48 848.22 1047.3 C 888.862 1011.95 911.882 1000.84 953.318 996.91 C 964.034 995.88 1007.14 996.59 1017.54 998.01 Z M 685.969 1032.26 C 706.052 1039.12 741.534 1065.09 768.84 1093.05 C 780.43 1104.86 784.399 1109.74 791.305 1120.61 C 813.531 1155.64 822.66 1188.95 821.39 1229.97 C 820.913 1246.11 819.881 1249.89 814.563 1255.17 C 812.499 1257.21 806.387 1261.46 800.989 1264.61 C 783.049 1275.08 762.253 1289.18 728.755 1313.74 C 660.647 1363.51 642.311 1371.85 579.918 1381.14 C 565.233 1383.27 548.247 1383.98 536.26 1382.8 C 503.799 1379.65 465.697 1372.56 437.835 1364.46 C 354.169 1340.2 268.916 1303.11 246.293 1281.07 C 235.735 1270.83 235.1 1261.07 244.149 1246.03 C 249.627 1236.97 253.993 1232.8 259.549 1231.62 C 266.297 1230.2 282.013 1230.6 317.257 1233.12 C 400.844 1239.11 418.387 1238.08 444.265 1225.64 C 461.014 1217.61 500.147 1185.09 568.805 1122.1 C 634.69 1061.71 672.157 1030.77 679.539 1030.77 C 680.73 1030.77 683.588 1031.39 685.969 1032.26 Z" fill="#000000" stroke="none" stroke-width="2" vector-effect="non-scaling-stroke" style=""/></svg>